<?xml version="1.0" encoding="utf-8"?>
<!-- Generator: Adobe Illustrator 16.0.3, SVG Export Plug-In . SVG Version: 6.00 Build 0)  -->
<!DOCTYPE svg PUBLIC "-//W3C//DTD SVG 1.1//EN" "http://www.w3.org/Graphics/SVG/1.1/DTD/svg11.dtd">
<svg version="1.1" id="Capa_1" xmlns="http://www.w3.org/2000/svg" xmlns:xlink="http://www.w3.org/1999/xlink" x="0px" y="0px"
	 width="120px" height="120px" viewBox="0 0 800 800" enable-background="new 0 0 800 800" xml:space="preserve">
<g>
	<path fill-rule="evenodd" clip-rule="evenodd" fill="#FFFFFF" d="M312.493,679.926c-0.907-0.968-0.814-1.975-0.196-3.063
		c0.811-1.428,1.57-2.886,2.329-4.343c1.639-3.149,3.118-6.375,4.515-9.638c2.381-5.558,4.73-11.13,7.116-16.687
		s4.789-11.106,7.214-16.646c0.738-1.685,1.617-3.31,2.017-5.125c0.233-0.395,0.472-0.786,0.697-1.185
		c0.366-0.647,0.296-1.189-0.227-1.779c-2.139-2.413-4.227-4.87-6.342-7.303c-4.622-5.315-9.245-10.63-13.88-15.935
		c-1.169-1.337-2.383-2.635-3.576-3.951c-0.092-0.468-0.417-0.805-0.648-1.198c-0.581-0.991-0.422-1.711,0.534-2.342
		c1.256-0.83,2.537-1.624,3.811-2.427c3.768-2.373,7.537-4.743,11.307-7.113c0.332-0.208,0.684-0.394,0.844-0.786
		c1.694-0.859,3.374-1.748,5.085-2.57c2.717-1.306,5.424-2.639,8.191-3.833c4.816-2.077,9.706-3.969,14.683-5.636
		c1.242-0.416,2.446-0.943,3.667-1.42c1.265-0.092,2.436-0.55,3.616-0.954c3.054-1.046,6.131-2.021,9.275-2.757
		c2.625-0.614,5.262-1.182,7.906-1.705c3.295-0.652,6.599-1.264,9.907-1.846c1.945-0.342,3.914-0.544,5.857-0.892
		c5.579-0.994,11.148-2.027,16.836-2.204c1.843-0.057,3.68-0.277,5.518-0.439c2.297-0.201,4.589-0.445,6.888-0.622
		c2.498-0.193,4.999-0.317,7.497-0.498c1.445-0.104,2.895-0.198,4.328-0.401c3.139-0.442,6.287-0.688,9.456-0.677
		c4.416,0.017,8.829-0.05,13.245,0.243c4.668,0.311,9.336,0.571,13.97,1.249c1.173,0.171,2.346,0.372,3.526,0.449
		c2.17,0.143,4.344,0.221,6.518,0.295c5.007,0.17,10.015,0.406,15.023,0.458c6.273,0.065,12.492,0.784,18.726,1.339
		c3.806,0.339,7.606,0.727,11.409,1.093c2.36,0.227,4.721,0.447,7.08,0.68c2.819,0.277,5.637,0.572,8.457,0.842
		c3.346,0.318,6.691,0.621,10.039,0.926c3.869,0.354,7.737,0.73,11.609,1.043c2.759,0.223,5.525,0.35,8.287,0.527
		c2.105,0.136,4.209,0.285,6.313,0.427c3.418,0.232,6.836,0.479,10.255,0.691c2.894,0.179,5.801,0.212,8.684,0.494
		c5.058,0.494,10.117,0.783,15.199,0.715c2.835-0.038,5.671-0.004,8.507-0.002c0.923,0,1.834,0.097,2.753,0.22
		c3.396,0.457,6.797,0.888,10.23,0.936c5.603,0.079,11.197,0.186,16.8-0.294c3.741-0.319,7.501-0.48,11.218-1.009
		c4.306-0.611,8.615-1.165,12.946-1.543c1.379-0.12,2.755-0.273,4.126-0.45c4.509-0.582,9.014-1.16,13.552-1.481
		c2.626-0.186,5.241-0.525,7.806-1.184c1.723-0.442,3.469-0.786,5.205-1.174c1.086,0.144,2.065-0.333,3.087-0.548
		c2.569-0.54,5.038-1.478,7.638-1.92c0.821-0.139,1.676-0.383,2.359-0.951c1.189-0.451,2.377-0.903,3.565-1.354
		c0.462,0.029,0.867-0.154,1.273-0.336l0.111,0.068l0.083-0.108c1.984-0.619,3.965-1.248,5.953-1.855
		c2.238-0.684,4.423-1.51,6.563-2.456c0.756,0.06,1.418-0.26,2.089-0.524c5.208-2.052,10.363-4.23,15.362-6.753
		c3.351-1.689,6.629-3.518,9.841-5.462c4.456-2.695,8.735-5.657,12.835-8.86c3.373-2.637,6.641-5.408,9.744-8.362
		c0.954-0.908,1.893-1.833,2.862-2.723c0.285-0.263,0.639-0.464,0.989-0.63c0.139-0.065,0.411-0.015,0.525,0.09
		c0.117,0.105,0.19,0.363,0.148,0.518c-0.12,0.443-0.294,0.873-0.475,1.297c-0.185,0.432-0.296,0.871-0.272,1.342
		c-1.075,2.256-2.199,4.49-3.213,6.773c-1.976,4.449-4.129,8.811-6.445,13.092c-2.066,3.82-4.305,7.538-6.707,11.157
		c-1.929,2.908-4.013,5.702-6.146,8.46c-2.582,3.337-5.415,6.443-8.527,9.3c-4.852,4.449-9.667,8.935-14.493,13.411
		c-3.904,3.623-7.799,7.257-11.703,10.88c-1.085,1.007-1.157,1.543-0.272,2.68c0.158,0.204,0.393,0.347,0.591,0.518
		c0.704,0.864,1.629,1.243,2.721,1.417c1.504,0.238,3.013,0.354,4.523,0.296c3.504-0.134,6.959,0.267,10.407,0.813
		c5.077,0.806,10.188,1.171,15.328,1.224c8.159,0.082,16.317,0.227,24.476,0.346c0.264,0.003,0.528,0,0.789,0.023
		c0.938,0.081,1.162,0.467,0.759,1.28c-0.379,0.761-0.974,1.415-1.113,2.292c-0.538,0.513-1.077,1.025-1.617,1.537
		c-0.35,0.131-0.458,0.422-0.502,0.756l0.018-0.028c-0.134,0.148-0.267,0.296-0.4,0.444l0.032-0.032
		c-0.222,0.064-0.363,0.208-0.426,0.431l0.032-0.032c-0.223,0.063-0.366,0.203-0.428,0.428l0.032-0.031
		c-0.229,0.057-0.375,0.195-0.424,0.429l0.03-0.028c-0.236,0.051-0.375,0.197-0.423,0.434l0.05-0.015
		c-0.968,0.179-1.05,0.261-1.211,1.229l0.01-0.063c-0.227,0.057-0.377,0.191-0.441,0.418l0.031-0.031
		c-0.224,0.058-0.369,0.195-0.434,0.418l0.03-0.028c-0.146,0.134-0.293,0.267-0.439,0.399l0.021-0.017
		c-0.437,0.035-0.713,0.256-0.803,0.692c-1.489,1.797-3.456,3.038-5.296,4.4c-4.062,3.009-8.317,5.738-12.705,8.252
		c-3.078,1.764-6.126,3.577-9.314,5.144c-1.65,0.813-3.336,1.572-4.942,2.449c-2.61,1.424-5.387,2.441-8.093,3.617
		c-3.066,1.331-6.23,2.447-9.396,3.524c-1.616,0.549-3.136,1.392-4.846,1.656c-0.659,0.103-1.265,0.339-1.882,0.576
		c-1.288,0.493-2.58,0.994-3.991,1.011c-0.46,0.025-0.937-0.021-1.375,0.087c-1.404,0.34-2.796,0.732-4.189,1.114
		c-2.281,0.626-4.534,1.377-6.844,1.861c-4.366,0.914-8.671,2.096-13.066,2.879c-3.484,0.62-6.923,1.476-10.427,2.018
		c-3.628,0.561-7.236,1.266-10.831,2.012c-0.984,0.204-1.945,0.283-2.932,0.3c-0.987,0.017-2.014-0.122-2.955,0.1
		c-1.115,0.264-2.214,0.277-3.329,0.28c-3.825,0.011-7.65,0.028-11.476,0.004c-2.633-0.016-5.227,0.623-7.868,0.426
		c-0.189-0.014-0.404,0.029-0.577,0.109c-0.688,0.322-1.419,0.241-2.141,0.271c-0.458,0.018-0.948-0.012-1.366,0.138
		c-0.773,0.276-1.556,0.253-2.344,0.253c-9.035,0.002-18.071,0.002-27.106-0.002c-0.527,0-1.09,0.072-1.572-0.085
		c-1.229-0.401-2.479-0.28-3.724-0.31c-0.857-0.021-1.76,0.131-2.561-0.09c-1.308-0.359-2.61-0.273-3.92-0.306
		c-0.659-0.015-1.358,0.11-1.97-0.066c-1.495-0.43-3.007-0.29-4.515-0.336c-0.657-0.021-1.36,0.101-1.966-0.087
		c-1.172-0.363-2.349-0.267-3.527-0.292c-0.989-0.021-2.022,0.154-2.958-0.074c-1.637-0.399-3.271-0.277-4.911-0.327
		c-0.658-0.021-1.359,0.1-1.968-0.084c-1.3-0.391-2.61-0.286-3.922-0.314c-0.791-0.017-1.624,0.126-2.363-0.079
		c-1.435-0.399-2.874-0.277-4.317-0.318c-0.724-0.02-1.492,0.099-2.162-0.103c-1.108-0.334-2.215-0.271-3.33-0.294
		c-0.988-0.021-2.017,0.133-2.956-0.093c-1.179-0.283-2.343-0.285-3.524-0.314c-0.46-0.012-0.935,0.015-1.377-0.088
		c-2.125-0.494-4.308-0.373-6.456-0.643c-1.946-0.243-3.898-0.639-5.886-0.488c-0.188,0.014-0.393-0.061-0.574-0.132
		c-0.631-0.252-1.295-0.193-1.951-0.241c-1.833-0.133-3.687-0.166-5.49-0.478c-1.313-0.229-2.609-0.293-3.923-0.313
		c-0.396-0.006-0.814,0.062-1.183-0.045c-2.176-0.626-4.438-0.305-6.653-0.651c-1.993-0.312-4.024-0.701-6.08-0.491
		c-0.193,0.021-0.411,0.007-0.586-0.065c-1.013-0.421-2.076-0.292-3.126-0.327c-0.526-0.019-1.062,0.01-1.579-0.073
		c-2.848-0.453-5.682-1.01-8.574-1.111c-0.261-0.01-0.519-0.083-0.775-0.132c-1.676-0.316-3.339-0.722-5.065-0.658
		c-0.327,0.012-0.662-0.015-0.984-0.07c-2.07-0.357-4.143-0.688-6.25-0.716c-0.264-0.004-0.543,0.018-0.785-0.063
		c-1.35-0.443-2.741-0.301-4.119-0.342c-0.527-0.016-1.085,0.1-1.577-0.034c-2.016-0.546-4.063-0.266-6.094-0.333
		c-0.593-0.02-1.227,0.08-1.768-0.098c-1.037-0.342-2.082-0.293-3.132-0.298c-2.374-0.014-4.748-0.001-7.123-0.016
		c-0.59-0.005-1.211,0.031-1.763-0.135c-0.781-0.235-1.557-0.248-2.346-0.249c-4.154-0.002-8.31-0.004-12.464-0.001
		c-0.527,0.001-1.092-0.081-1.572,0.075c-1.229,0.402-2.478,0.304-3.725,0.312c-2.506,0.014-5.013,0.005-7.519,0.011
		c-0.461,0.001-0.959-0.078-1.376,0.066c-1.288,0.445-2.606,0.301-3.918,0.322c-1.317,0.022-2.668-0.142-3.946,0.092
		c-1.313,0.241-2.611,0.262-3.924,0.291c-0.526,0.012-1.088-0.077-1.574,0.073c-1.358,0.419-2.74,0.3-4.119,0.333
		c-0.461,0.012-0.931-0.027-1.381,0.048c-2.266,0.382-4.532,0.736-6.837,0.763c-0.261,0.003-0.538,0.023-0.775,0.118
		c-0.697,0.272-1.42,0.257-2.145,0.279c-0.459,0.015-0.933,0.009-1.372,0.121c-1.666,0.427-3.39,0.291-5.078,0.594
		c-1.605,0.288-3.237,0.483-4.858,0.715c-1.883,0.269-3.73,0.722-5.617,0.992c-1.938,0.279-3.942,0.255-5.814,0.962
		c-0.242,0.092-0.517,0.092-0.773,0.148c-2.753,0.611-5.533,1.126-8.252,1.863c-3.805,1.03-7.646,1.938-11.385,3.206
		c-1.306,0.443-2.64,0.808-3.959,1.21c-3.269,0.999-6.537,1.998-9.805,3.002c-0.314,0.096-0.651,0.174-0.917,0.352
		c-0.197,0.131-0.296,0.408-0.439,0.622c-0.276,0.169-0.535,0.388-0.833,0.496c-1.234,0.448-2.531,0.754-3.712,1.309
		c-2.493,1.172-5.092,2.076-7.616,3.17c-2.655,1.15-5.224,2.464-7.843,3.678c-1.019,0.472-1.968,1.05-2.891,1.683
		c-4.435,3.036-8.869,6.071-13.311,9.095C314.692,678.53,313.585,679.217,312.493,679.926z M605.06,625.35
		c-0.157-0.326-0.039-0.637,0.05-0.954c0.619-2.196,0.724-4.409,0.268-6.652c-0.434-2.129-0.779-4.278-1.258-6.396
		c-0.656-2.903-0.242-5.627,1.132-8.235c0.152-0.291,0.285-0.595,0.388-0.906c0.119-0.361-0.12-0.853-0.484-0.971
		c-0.309-0.099-0.638-0.165-0.961-0.189c-1.512-0.113-3.024-0.203-4.536-0.31c-1.009-0.07-1.811,0.286-2.358,1.146
		c-0.317,0.498-0.646,0.998-0.898,1.531c-1.1,2.322-2.168,4.658-3.259,6.984c-0.195,0.413-0.343,0.985-0.684,1.168
		c-0.983,0.527-1.279,1.449-1.664,2.356c-0.541,1.274-1.066,2.559-1.683,3.796c-1.321,2.652-2.553,5.356-4.307,7.772
		c-0.627,0.862-1.278,1.68-2.229,2.202c-0.629,0.346-1.218,0.089-1.328-0.613c-0.164-1.05-0.146-2.119,0.037-3.153
		c0.423-2.4,0.839-4.807,1.423-7.169c1.029-4.156,2.119-8.3,3.474-12.366c0.104-0.313,0.167-0.637,0.263-0.952
		c0.215-0.713-0.005-1.328-0.515-1.8c-0.934-0.865-2.013-1.556-3.297-1.674c-2.484-0.229-2.706,0-3.374,2.037
		c-0.718,2.191-1.375,4.402-2.063,6.603c-0.313,1.004-0.586,2.016-1.364,2.813c-0.308,0.314-0.483,0.779-0.653,1.201
		c-1.477,3.672-3.135,7.259-4.977,10.759c-0.553,1.049-1.21,2.052-2.191,2.774c-0.314,0.232-0.652,0.452-1.012,0.599
		c-0.607,0.247-1.251-0.04-1.414-0.674c-0.163-0.632-0.264-1.294-0.288-1.946c-0.073-1.922,0.188-3.818,0.645-5.681
		c0.942-3.841,2.043-7.638,3.226-11.41c0.274-0.878,0.581-1.749,0.634-2.686c0.117-2.033-0.72-3.569-2.377-4.696
		c-1.264-0.858-2.658-1.133-4.15-0.884c-1.044,0.175-2.089,0.304-3.147,0.274c-0.676-0.019-0.922-0.347-0.765-1.043
		c0.13-0.577,0.336-1.137,0.475-1.712c0.312-1.29-0.004-1.78-1.303-2.163c-0.521-0.153-1.034-0.208-1.557-0.06
		c-0.319,0.091-0.668,0.203-0.815,0.514c-0.774,1.627-1.551,3.322-0.547,5.073c0.604,1.056,0.54,1.956,0.107,2.984
		c-0.765,1.823-1.491,3.661-2.219,5.498c-0.15,0.378-0.322,0.751-0.661,0.961c-0.914,0.565-1.226,1.496-1.606,2.417
		c-1.385,3.357-3.036,6.585-4.906,9.694c-0.608,1.014-1.311,1.984-2.181,2.806c-0.331,0.313-0.691,0.61-1.08,0.848
		c-0.63,0.388-1.206,0.128-1.29-0.621c-0.154-1.377-0.153-2.758,0.08-4.136c0.775-4.557,1.991-9.004,3.349-13.414
		c0.581-1.89,1.255-3.75,1.838-5.639c0.391-1.267,0.121-1.976-0.972-2.725c-1.114-0.762-2.376-1.121-3.715-1.205
		c-1.051-0.064-1.785,0.413-2.157,1.387c-0.328,0.86-0.604,1.742-0.901,2.615c-1.565,4.615-2.828,9.334-4.784,13.814
		c-1.163,2.667-2.444,5.261-4.367,7.479c-0.342,0.396-0.694,0.804-1.117,1.101c-1.082,0.759-1.741,0.483-1.913-0.781
		c-0.079-0.583-0.111-1.189-0.05-1.773c0.146-1.376,0.284-2.76,0.559-4.113c0.997-4.914,2.376-9.725,4.019-14.462
		c0.322-0.932,0.624-1.879,0.838-2.841c0.185-0.83-0.085-1.557-0.83-2.064c-1.106-0.754-2.306-1.282-3.636-1.464
		c-1.013-0.137-1.826,0.202-2.301,1.148c-0.235,0.47-0.447,0.958-0.606,1.457c-0.825,2.57-1.628,5.146-2.444,7.719
		c-0.06,0.185-0.114,0.407-0.249,0.525c-1.037,0.918-1.401,2.223-1.931,3.414c-1.446,3.256-3.006,6.448-4.968,9.432
		c-0.581,0.887-1.241,1.706-1.982,2.459c-0.653,0.663-1.172,0.851-1.52,0.572c-0.493-0.393-0.393-0.93-0.327-1.455
		c0.495-3.996,1.299-7.936,2.312-11.824c1.212-4.652,2.573-9.267,3.859-13.899c0.496-1.788,0.412-1.812,2.441-1.717
		c0.987,0.047,1.976,0.053,2.963,0.049c0.275-0.001,0.496-0.182,0.555-0.469c0.074-0.354-0.044-0.682-0.377-0.822
		c-0.355-0.151-0.746-0.231-1.13-0.3c-0.842-0.152-1.692-0.26-2.534-0.42c-0.289-0.055-0.433-0.322-0.385-0.602
		c0.068-0.385,0.185-0.765,0.313-1.136c0.34-0.998,0.646-2.013,1.063-2.979c0.384-0.894,0.11-1.538-0.567-2.086
		c-1.265-1.021-2.729-1.602-4.334-1.773c-1.547-0.164-2.107,0.227-2.671,1.722c-0.559,1.479-1.107,2.962-1.675,4.438
		c-0.645,1.682-0.724,1.732-2.431,1.604c-0.919-0.068-1.835-0.186-2.755-0.238c-0.317-0.02-0.651,0.055-0.96,0.146
		c-0.346,0.104-0.489,0.699-0.29,1.008c0.316,0.489,0.79,0.685,1.34,0.713c0.79,0.041,1.583,0.038,2.372,0.085
		c1.143,0.067,1.4,0.421,1.14,1.509c-0.046,0.191-0.122,0.375-0.178,0.565c-0.824,2.847-1.782,5.664-2.43,8.551
		c-0.493,2.202-1.738,3.809-3.299,5.237c-1.151,1.053-2.601,1.521-4.177,1.51c-0.647-0.005-0.94-0.369-0.846-1.036
		c0.129-0.913,0.311-1.819,0.41-2.736c0.264-2.386,0.095-4.769-0.606-7.047c-1.283-4.175-4.995-5.835-8.619-5.298
		c-2.194,0.325-4.043,1.436-5.611,3.086c-1.721,1.81-2.818,3.962-3.871,6.165c-0.198,0.416-0.292,0.915-0.582,1.247
		c-0.934,1.064-1.46,2.355-2.053,3.596c-0.881,1.85-1.848,3.646-2.896,5.4c-1.326,2.216-2.909,4.229-4.854,5.951
		c-1.568,1.389-3.362,2.013-5.458,1.796c-0.69-0.072-1.258-0.316-1.771-0.772c-1.356-1.207-1.994-2.768-2.2-4.518
		c-0.287-2.445-0.142-4.862,0.545-7.248c0.533-1.848,1.271-3.61,2.195-5.281c0.96-1.732,2.143-3.323,3.604-4.684
		c0.535-0.5,1.107-0.938,1.865-1.05c0.497-0.073,0.926,0.243,0.977,0.742c0.076,0.747-0.135,1.427-0.455,2.095
		c-0.398,0.831-0.802,1.666-1.117,2.53c-0.256,0.701,0.155,1.377,0.89,1.474c1.789,0.24,2.792,0.174,3.74-1.735
		c0.233-0.47,0.451-0.959,0.588-1.463c1.131-4.14-1.617-7.6-5.476-7.897c-2.173-0.168-4.173,0.232-6.057,1.379
		c-1.386,0.844-2.526,1.953-3.458,3.21c-3.746,5.06-5.583,10.733-4.931,17.062c0.29,2.815,1.626,5.121,4.09,6.652
		c2.528,1.571,5.33,1.764,8.204,1.537c1.209-0.097,2.321-0.494,3.349-1.111c1.302-0.781,2.557-1.625,3.563-2.795
		c1.723-2.004,3.227-4.156,4.548-6.44c0.197-0.341,0.393-0.682,0.617-1.003c0.055-0.079,0.234-0.125,0.336-0.101
		c0.091,0.022,0.208,0.159,0.218,0.254c0.121,1.112,0.215,2.228,0.332,3.34c0.182,1.731,0.828,3.28,1.658,4.814
		c1.919,3.551,7.273,4.496,10.404,2.368c1.922-1.306,3.48-2.962,4.658-5.001c0.794-1.373,1.457-2.797,2.026-4.264
		c0.364-0.941,0.937-1.318,1.939-1.313c1.682,0.008,3.253-0.447,4.673-1.387c0.316-0.208,0.628-0.505,1.111-0.356
		c0.263,0.557,0.085,1.144,0.021,1.717c-0.163,1.44-0.392,2.873-0.527,4.316c-0.188,1.995,0.09,3.936,0.784,5.825
		c0.37,1.007,1.051,1.644,2.014,2.04c0.992,0.409,2.04,0.466,3.09,0.592c1.903,0.229,3.354-0.547,4.533-1.904
		c0.95-1.091,1.854-2.226,2.526-3.53c0.603-1.171,1.284-2.303,1.941-3.445c0.124-0.217,0.232-0.488,0.645-0.434
		c0.156,0.626,0.008,1.255-0.099,1.886c-0.279,1.658-0.085,3.29,0.356,4.893c0.415,1.507,1.41,2.525,2.89,3.002
		c1.191,0.385,2.425,0.617,3.685,0.669c1.039,0.044,1.963-0.244,2.723-0.954c0.914-0.854,1.844-1.688,2.486-2.798
		c0.493-0.854,1.085-1.653,1.643-2.47c0.104-0.155,0.221-0.339,0.457-0.299c0.248,0.042,0.243,0.259,0.268,0.441
		c0.123,0.978,0.155,1.978,0.379,2.933c0.416,1.776,1.384,3.079,3.274,3.592c1.036,0.279,2.077,0.328,3.126,0.429
		c1.411,0.134,2.586-0.365,3.577-1.335c0.375-0.366,0.714-0.774,1.047-1.182c2.151-2.625,3.572-5.674,5.049-8.695
		c0.859-1.756,1.307-3.755,2.934-5.081c0.235-0.191,0.345-0.556,0.473-0.856c0.439-1.03,0.872-2.063,1.287-3.104
		c0.464-1.163,0.926-2.327,1.35-3.506c0.313-0.871,0.904-1.236,1.812-1.198c0.658,0.026,1.319-0.011,1.979-0.004
		c1.869,0.019,2.001,0.175,1.458,1.909c-1.062,3.396-2.106,6.796-2.991,10.243c-0.741,2.889-1.252,5.798-1.083,8.795
		c0.036,0.657,0.061,1.311,0.251,1.954c0.553,1.878,1.769,3.083,3.669,3.477c1.222,0.254,2.481,0.338,3.729,0.455
		c1.58,0.148,2.83-0.495,3.773-1.736c1-1.314,1.905-2.688,2.598-4.195c0.384-0.838,0.812-1.656,1.229-2.479
		c0.114-0.225,0.255-0.458,0.697-0.258c0,0.729,0.025,1.517-0.006,2.302c-0.046,1.132,0.133,2.241,0.357,3.337
		c0.452,2.198,1.802,3.44,4.023,3.784c0.651,0.102,1.313,0.137,1.962,0.248c1.486,0.259,2.74-0.173,3.774-1.244
		c0.963-0.998,1.84-2.062,2.534-3.273c0.393-0.686,0.847-1.335,1.29-1.989c0.06-0.089,0.227-0.152,0.336-0.142
		c0.091,0.008,0.226,0.128,0.247,0.219c0.057,0.255,0.052,0.523,0.092,0.782c0.522,3.343,2.64,5.587,5.928,6.33
		c1.759,0.396,3.544,0.45,5.314,0.271c2.335-0.235,4.219-1.376,5.691-3.209c1.49-1.854,2.792-3.835,4.053-5.847
		c0.139-0.223,0.23-0.653,0.746-0.395c0.001,1.634-0.39,3.241-0.623,4.863c-0.113,0.789-0.199,1.575-0.113,2.363
		c0.134,1.221,0.726,2.072,1.983,2.423c1.165,0.326,2.338,0.369,3.527,0.289c0.534-0.034,0.819-0.38,0.936-0.871
		c0.061-0.255,0.09-0.521,0.113-0.782c0.195-2.104,0.642-4.164,1.031-6.236c0.225-1.194,0.646-2.271,1.256-3.298
		c1.247-2.096,2.452-4.217,3.736-6.288c1.39-2.245,2.957-4.367,4.713-6.34c0.436-0.489,0.964-0.897,1.451-1.341
		c0.213-0.195,0.492-0.273,0.715-0.113c0.121,0.086,0.183,0.371,0.147,0.541c-0.172,0.839-0.359,1.675-0.588,2.5
		c-1.164,4.19-2.228,8.405-3.082,12.672c-0.39,1.945-0.7,3.893-0.589,5.886c0.138,2.442,1.362,3.759,3.78,4.015
		c0.522,0.057,1.056,0.054,1.581,0.029c0.901-0.041,1.223-0.287,1.263-1.171c0.104-2.257,0.742-4.412,1.135-6.614
		c0.31-1.735,0.999-3.271,1.875-4.747c1.346-2.267,2.713-4.521,4.131-6.743c1.421-2.224,3.031-4.31,4.872-6.208
		c0.133-0.137,0.31-0.231,0.474-0.333c0.2-0.122,0.619,0.085,0.604,0.311c-0.021,0.324-0.051,0.654-0.129,0.969
		c-0.602,2.429-1.21,4.855-1.828,7.28c-0.748,2.938-1.455,5.884-1.777,8.905c-0.183,1.71-0.225,3.414,0.075,5.122
		c0.27,1.537,1.153,2.429,2.619,2.897c1.039,0.332,2.079,0.254,3.131,0.289c3.11,0.104,5.053-1.515,6.301-4.193
		c0.083-0.179,0.171-0.355,0.25-0.536c0.796-1.809,1.579-3.623,2.395-5.423c0.173-0.38,0.191-0.942,0.888-0.967
		c0.026,0.326,0.052,0.648,0.074,0.971c0.119,1.653,0.411,3.273,1.058,4.805c1.054,2.498,2.854,4.073,5.619,4.385
		c1.481,0.167,2.888-0.138,4.214-0.795c1.878-0.931,3.326-2.349,4.521-4.048c1.333-1.897,2.467-3.9,3.141-6.131
		c0.417-1.378,1.188-2.332,2.698-2.542c0.388-0.054,0.765-0.199,1.142-0.317c2.168-0.681,3.807-2.05,5.021-3.938
		c0.354-0.551,0.648-1.147,0.895-1.754c0.132-0.324-0.049-0.636-0.389-0.805c-0.265-0.13-0.562-0.108-0.734,0.084
		c-0.351,0.389-0.647,0.826-0.95,1.255c-0.965,1.368-2.085,2.556-3.688,3.176c-0.719,0.277-1.518,0.94-2.203,0.391
		c-0.604-0.483-0.148-1.361-0.048-2.063c0.375-2.633,0.378-5.252-0.226-7.859c-1.034-4.466-5.058-5.707-7.91-5.108
		c-2.49,0.521-4.499,1.823-6.19,3.654c-1.859,2.014-3.124,4.393-4.137,6.919c-0.22,0.547-0.438,1.122-0.791,1.584
		c-0.654,0.855-1.049,1.828-1.437,2.805c-0.705,1.774-1.339,3.577-2.071,5.339c-1.011,2.433-1.979,4.885-3.343,7.158
		c-0.462,0.769-1.026,1.36-1.792,1.782c-0.429,0.236-0.976-0.014-1.063-0.506c-0.068-0.386-0.09-0.785-0.091-1.179
		c-0.005-2.384,0.35-4.725,0.872-7.043c0.957-4.24,1.917-8.479,2.879-12.718c0.25-1.103,0.348-2.219,0.243-3.342
		c-0.162-1.746-1.304-2.863-3.06-3.082c-1.815-0.224-3.405,0.32-4.76,1.49c-0.895,0.772-1.76,1.602-2.512,2.51
		c-2.017,2.439-3.958,4.938-5.546,7.689c-0.162,0.279-0.382,0.531-0.604,0.768c-0.057,0.06-0.236,0.02-0.353-0.006
		c-0.042-0.009-0.097-0.112-0.09-0.166c0.031-0.258,0.067-0.516,0.124-0.769c0.358-1.607,0.735-3.211,1.081-4.821
		c0.251-1.167,0.337-2.352,0.191-3.539c-0.138-1.134-0.732-1.924-1.784-2.426c-2.088-0.995-3.981-0.563-5.746,0.732
		c-1.823,1.339-3.288,3.046-4.636,4.841c-1.264,1.685-2.428,3.446-3.643,5.171c-0.166,0.236-0.266,0.599-0.688,0.485
		c-0.155-0.343-0.021-0.656,0.076-0.966c0.569-1.824,1.145-3.646,1.716-5.469c0.275-0.883,0.545-1.766,0.563-2.702
		c0.012-0.72-0.26-1.289-0.909-1.631c-1.056-0.556-2.146-1.024-3.351-1.132c-1.744-0.154-2.515,0.437-2.987,2.147
		c-0.736,2.667-1.512,5.323-2.281,7.981c-0.089,0.312-0.164,0.675-0.371,0.896c-1.021,1.092-1.483,2.482-2.093,3.79
		c-1.424,3.059-3.122,5.95-5.127,8.663C605.541,625.188,605.352,625.357,605.06,625.35z M426.239,600.012
		c-0.066,0.111-0.108,0.26-0.206,0.328c-0.484,0.34-0.975,0.672-1.479,0.982c-4.79,2.929-8.062,7.102-10.106,12.291
		c-0.514,1.301-0.802,2.659-0.941,4.03c-0.249,2.45,0.494,4.621,1.79,6.73c1.405,2.288,3.409,3.604,5.853,4.362
		c2.313,0.718,4.721,0.641,7.061,0.263c4.286-0.693,8.257-2.277,11.722-4.939c1.767-1.356,3.395-2.849,4.847-4.596
		c1.504-1.807,2.595-3.8,3.663-5.835c0.767-1.459,0.766-3.051,0.563-4.64c-0.048-0.374-0.211-0.777-0.438-1.08
		c-1.332-1.781-3.199-2.69-5.324-3.138c-0.352-0.075-0.796,0.273-0.871,0.658c-0.063,0.321-0.058,0.655-0.103,0.981
		c-0.216,1.567-0.414,3.15-1.248,4.538c-0.745,1.24-1.515,2.473-2.357,3.648c-2.338,3.263-5.319,5.813-8.737,7.9
		c-1.717,1.048-3.524,1.779-5.495,2.112c-2.736,0.464-4.828-1.145-5.08-3.92c-0.127-1.398,0.075-2.753,0.599-4.068
		c0.923-2.317,2.453-4.203,4.224-5.896c2.884-2.761,6.106-5.012,9.935-6.3c0.186-0.063,0.361-0.162,0.533-0.255
		c0.52-0.282,0.793-0.747,0.694-1.309c-0.217-1.248-0.587-2.421-1.665-3.259c-0.94-0.731-1.93-1.372-2.948-1.985
		c-1.631-0.98-2.361-2.672-2.06-4.548c0.138-0.853,0.407-1.654,0.743-2.449c1.214-2.873,3.194-5.157,5.6-7.047
		c1.706-1.34,3.556-2.499,5.777-2.899c0.739-0.135,1.428-0.133,2.142,0.056c1.362,0.358,2.237,1.393,2.023,2.72
		c-0.53,3.28-2.192,5.876-4.979,7.723c-0.565,0.374-1.241,0.424-1.865,0.626c-0.709,0.229-0.985,0.605-0.896,1.323
		c0.192,1.55,0.771,2.943,1.947,4.001c1.038,0.933,2.216,1.298,3.65,0.878c2.114-0.618,3.805-1.796,5.116-3.526
		c2.489-3.284,3.378-6.999,2.556-11.012c-0.715-3.496-2.664-6.117-6.11-7.455c-2.389-0.928-4.811-1.237-7.361-0.771
		c-4.251,0.775-8.072,2.359-11.145,5.502c-2.591,2.652-4.447,5.725-5.151,9.392c-0.712,3.715,0.282,7.442,4.554,9.249
		C425.623,599.532,426.002,599.664,426.239,600.012z M582.388,593.513c-0.04,1.403,0.021,1.705,0.54,2.118
		c1.101,0.875,2.305,1.494,3.771,1.474c0.732-0.011,1.279-0.251,1.553-0.959c0.564-1.469,1.116-2.942,1.689-4.408
		c0.273-0.7,0.098-1.292-0.397-1.802c-1.151-1.185-2.584-1.767-4.211-1.879c-0.802-0.055-1.422,0.29-1.735,1.037
		C582.958,590.612,582.511,592.186,582.388,593.513z"/>
	<path fill-rule="evenodd" clip-rule="evenodd" fill="#FFFFFF" d="M726.124,554.332c-0.406,0.182-0.812,0.365-1.273,0.336
		c-0.256-2.78,0.418-5.507,0.488-8.269c0.002-0.064,0.037-0.127,0.045-0.191c0.209-1.694,0.464-3.384,0.614-5.083
		c0.233-2.619,0.587-5.219,1.053-7.805c0.058-0.323,0.123-0.645,0.175-0.97c0.345-2.204,0.658-4.414,1.035-6.613
		c0.41-2.395,0.974-4.769,1.297-7.173c0.409-3.062,0.987-6.091,1.497-9.133c0.281-1.685,0.701-3.354,0.871-5.047
		c0.217-2.166,0.755-4.267,1.104-6.404c0.411-2.528,0.972-5.036,1.293-7.573c0.379-3.001,0.958-5.963,1.434-8.944
		c0.28-1.751,0.74-3.479,0.928-5.237c0.305-2.882,0.989-5.692,1.438-8.546c0.257-1.621,0.747-3.211,0.926-4.838
		c0.237-2.162,0.762-4.266,1.096-6.407c0.282-1.817,0.647-3.621,0.921-5.439c0.303-2.013,0.479-4.044,0.82-6.049
		c0.54-3.172,0.844-6.381,1.565-9.524c0.367-1.599,0.438-3.289,0.979-4.819c0.703-1.987,1.137-4.056,1.909-6.014
		c0.894-2.264,1.696-4.584,2.831-6.726c1.198-2.263,2.298-4.59,3.766-6.715c0.896-1.296,1.752-2.626,2.611-3.946
		c1.725-2.649,3.627-5.161,5.516-7.687c1.142-1.525,2.325-3.017,3.537-4.491c1.543-1.877,2.919-3.893,4.352-5.861
		c0.695-0.956,1.294-1.974,2.091-2.867c1.443-1.619,2.836-3.285,4.202-4.969c1.374-1.693,2.53-3.524,3.362-5.558
		c0.409-1.001,0.343-1.868-0.221-2.797c-1.16-1.915-2.233-3.881-3.361-5.815c-2.055-3.524-4.123-7.042-6.188-10.561
		c-1.134-1.932-2.273-3.86-3.407-5.792c-1.867-3.18-3.728-6.365-5.6-9.542c-2.039-3.46-4.092-6.913-6.132-10.373
		c-1.975-3.346-3.94-6.698-5.912-10.045c-1.938-3.289-3.885-6.574-5.822-9.862c-2.039-3.46-4.073-6.923-6.108-10.386
		c-1.101-1.874-2.206-3.746-3.301-5.624c-1.99-3.414-3.965-6.836-5.966-10.244c-1.968-3.351-4.021-6.655-5.926-10.041
		c-2.941-5.224-5.791-10.5-8.678-15.753c-0.664-1.209-1.313-2.426-1.989-3.628c-1.195-2.124-2.408-4.238-3.608-6.359
		c-1.849-3.271-3.93-6.393-6.12-9.439c-0.406-0.564-0.765-1.25-1.509-1.506c-0.629-0.672-1.24-1.364-1.895-2.011
		c-0.453-0.448-0.999-0.564-1.637-0.345c-1.432,0.492-2.884,0.921-4.313,1.414c-6.904,2.38-13.805,4.774-20.707,7.161
		c-4.538,1.569-9.082,3.125-13.616,4.703c-5.595,1.945-11.183,3.905-16.771,5.862c-3.229,1.131-6.479,2.204-9.675,3.421
		c-2.396,0.913-4.738,1.976-7.071,3.044c-3.619,1.659-7.392,2.75-11.328,3.305c-1.601,0.226-2.927-0.15-4.145-1.304
		c-3.729-3.538-7.222-7.283-10.458-11.277c-3.938-4.859-7.891-9.708-11.896-14.511c-3.754-4.501-7.742-8.798-11.657-13.158
		c-1.315-1.464-2.729-2.863-3.772-4.559c0.101-0.637-0.25-1.138-0.514-1.659c-0.534-1.053-1.045-2.12-1.633-3.143
		c-1.6-2.783-3.102-5.631-5.257-8.051c-0.389-0.437-0.739-0.942-1.423-0.938c-2.135-2.156-4.589-2.645-7.417-1.519
		c-1.833,0.73-3.758,1.246-5.558,2.044c-3.549,1.577-7.105,3.161-10.543,4.963c-6.017,3.155-12.254,5.805-18.506,8.432
		c-4.977,2.091-9.973,4.134-14.957,6.209c-4.497,1.873-8.984,3.771-13.482,5.642c-4.559,1.897-9.148,3.722-13.681,5.676
		c-4.474,1.929-8.95,3.859-13.273,6.122c-1.574,0.824-3.151,1.649-4.762,2.4c-3.407,1.589-6.929,2.891-10.526,3.974
		c-1.511,0.455-3.032,0.898-4.616,1.063c-1.101,0.114-2.09-0.003-2.833-0.978c-0.355-0.466-0.837-0.834-1.262-1.247
		c0.004-0.462-0.379-0.667-0.646-0.934c-1.206-1.211-2.431-2.403-3.642-3.61c-3.818-3.804-7.63-7.616-11.457-11.412
		c-0.453-0.448-0.791-1.082-1.541-1.139c-1.225-1.191-2.463-2.368-3.669-3.576c-2.086-2.091-4.133-4.219-6.227-6.301
		c-4.1-4.075-8.228-8.121-12.327-12.195c-2.28-2.266-4.525-4.565-6.786-6.85c-0.028-0.435-0.331-0.704-0.606-0.984
		c-1.202-1.223-2.403-2.447-3.614-3.661c-8.2-8.217-16.428-16.406-24.587-24.663c-2.313-2.34-4.378-4.924-6.653-7.303
		c-3.052-3.193-6.183-6.311-9.308-9.433c-1.87-1.866-3.96-3.473-6.104-5.013c-0.919-0.661-1.927-1.146-2.951-1.593
		c-1.234-0.54-1.68-0.412-2.561,0.629c-0.936,1.105-1.868,2.216-2.779,3.342c-2.07,2.56-4.125,5.13-6.19,7.694
		c-1.238,1.539-2.479,3.077-3.725,4.611c-1.868,2.301-3.75,4.589-5.606,6.898c-1.279,1.591-2.512,3.22-3.788,4.813
		c-2.551,3.186-5.12,6.357-7.679,9.538c-2.89,3.591-5.773,7.189-8.667,10.779c-2.273,2.819-4.559,5.63-6.838,8.445
		c-2.153,2.66-4.312,5.316-6.456,7.984c-2.02,2.515-3.978,5.081-6.047,7.553c-2.116,2.529-4.115,5.146-6.037,7.816
		c-3.039,4.222-5.963,8.526-9.188,12.613c-1.716,2.174-3.501,4.285-5.438,6.27c-0.775,0.794-1.715,1.443-2.267,2.447
		c-0.112,0.07-0.229,0.133-0.333,0.212c-1.47,1.105-3.035,1.404-4.837,0.841c-1.44-0.45-2.95-0.683-4.435-0.984
		c-5.358-1.087-10.723-2.146-16.078-3.245c-6.194-1.272-12.378-2.596-18.574-3.861c-5.487-1.12-10.985-2.176-16.474-3.286
		c-6.263-1.267-12.517-2.576-18.779-3.842c-5.94-1.202-11.889-2.364-17.831-3.557c-6.781-1.36-13.537-2.831-20.187-4.753
		c-4.373-1.264-8.826-2.172-13.301-2.972c-2.141-0.382-4.306-0.624-6.495-0.514c-0.805,0.041-1.579,0.128-2.228,0.664
		c-0.825,0.254-1.237,0.955-1.647,1.613c-1.185,1.9-2.397,3.788-3.468,5.751c-2.524,4.627-4.708,9.426-6.976,14.182
		c-0.679,1.425-1.322,2.867-1.994,4.295c-2.268,4.827-4.497,9.673-6.828,14.47c-1.583,3.256-3.333,6.429-4.964,9.661
		c-3.622,7.177-7.205,14.374-10.827,21.551c-1.838,3.641-3.741,7.248-5.588,10.885c-1.999,3.939-3.967,7.893-5.948,11.841
		c-3.311,6.596-6.613,13.196-9.937,19.785c-1.186,2.35-2.447,4.66-3.633,7.009c-2.437,4.826-4.846,9.665-7.264,14.5
		c-5.84,11.675-11.666,23.356-17.534,35.018c-0.886,1.762-1.833,3.522-2.989,5.109c-1.071,1.471-1.765,3.097-2.384,4.739
		c-0.692,1.835-0.406,4.025,1.561,4.969c0.532,0.254,1.002,0.632,1.524,0.909c1.744,0.929,3.516,1.793,5.37,2.494
		c3.752,1.419,7.503,2.847,11.224,4.348c3.72,1.499,7.517,2.813,11.111,4.629c1.84,0.929,3.18,2.271,4.155,4.064
		c0.816,1.504,1.511,3.042,2.162,4.632c2.248,5.495,3.912,11.18,5.648,16.839c1.542,5.026,2.969,10.082,4.759,15.034
		c1.99,5.505,3.894,11.047,5.635,16.634c0.919,2.951,2.024,5.835,2.938,8.788c0.834,2.697,1.802,5.364,2.725,8.04
		c1.352,3.921,2.838,7.801,4.01,11.774c0.838,2.842,2.011,5.56,2.8,8.419c0.769,2.787,1.889,5.474,2.818,8.216
		c1.879,5.544,3.608,11.132,5.094,16.797c1.016,3.873,1.796,7.832,3.673,11.432c0.479,1.912,1.758,3.373,2.847,4.927
		c0.714,1.019,1.762,1.541,3.074,1.461c0.854-0.052,1.756-0.16,2.562,0.047c1.698,0.436,3.404,0.284,5.109,0.335
		c0.658,0.021,1.352-0.074,1.965,0.104c0.977,0.283,1.952,0.276,2.938,0.286c1.451,0.014,2.902-0.002,4.353,0.017
		c0.523,0.007,1.074-0.011,1.563,0.14c0.78,0.242,1.561,0.231,2.349,0.232c4.617,0.006,9.233,0.003,13.85,0.01
		c0.592,0.001,1.225-0.083,1.768,0.093c1.038,0.337,2.082,0.293,3.132,0.295c4.419,0.009,8.838,0.005,13.256,0.013
		c0.592,0.001,1.225-0.089,1.769,0.085c1.103,0.353,2.213,0.3,3.329,0.301c11.344,0.006,22.688,0.006,34.031,0.014
		c0.658,0,1.353-0.077,1.965,0.103c0.977,0.287,1.953,0.28,2.938,0.282c5.145,0.007,10.289,0.002,15.433,0.015
		c0.655,0.001,1.34-0.028,1.959,0.144c0.849,0.234,1.693,0.236,2.547,0.237c5.21,0.008,10.42,0.007,15.63,0.014
		c0.593,0.001,1.226-0.091,1.769,0.084c1.103,0.354,2.214,0.301,3.33,0.303c5.144,0.009,10.289,0.002,15.433,0.011
		c0.657,0.001,1.345-0.051,1.963,0.121c0.848,0.237,1.689,0.251,2.544,0.252c5.342,0.006,10.684,0.004,16.026,0.015
		c0.658,0.001,1.352-0.065,1.963,0.119c0.913,0.274,1.82,0.263,2.739,0.264c5.145,0.007,10.289,0.004,15.433,0.012
		c0.658,0.002,1.356-0.082,1.964,0.106c0.977,0.303,1.952,0.279,2.936,0.281c5.012,0.008,10.024,0.003,15.037,0.014
		c0.656,0.001,1.343-0.042,1.961,0.131c0.848,0.236,1.69,0.253,2.545,0.254c5.21,0.005,10.42,0.002,15.63,0.012
		c0.657,0.001,1.348-0.059,1.963,0.118c0.913,0.264,1.821,0.265,2.741,0.266c4.221,0.008,8.441,0.006,12.663,0.021
		c0.375,0.001,0.779-0.135,1.154,0.149c-0.131,0.211-0.261,0.419-0.392,0.628c-1.221,0.477-2.425,1.004-3.667,1.42
		c-4.977,1.667-9.867,3.559-14.683,5.636c-2.767,1.194-5.474,2.527-8.191,3.833c-1.711,0.822-3.392,1.711-5.085,2.57
		c-0.653-0.063-1.306-0.172-1.96-0.183c-6.594-0.102-13.19-0.157-19.784-0.283c-17.342-0.329-34.684-0.712-52.026-1.024
		c-12.067-0.217-24.136-0.315-36.204-0.532c-17.277-0.312-34.552-0.688-51.828-1.028c-7.913-0.156-15.826-0.298-23.739-0.443
		c-1.122-0.021-2.241-0.047-3.347-0.273c-0.386-0.078-0.786-0.1-1.18-0.115c-4.946-0.198-9.889-0.139-14.832,0.136
		c-4.806,0.268-9.607,0.633-14.427,0.604c-3.507-0.021-6.982-0.282-10.404-1.076c-0.769-0.177-1.524-0.406-2.285-0.614
		c-1.452-0.395-2.391-1.284-2.831-2.752c-0.473-1.575-1.025-3.127-1.558-4.684c-2.044-5.979-4.104-11.952-6.142-17.933
		c-2.378-6.979-4.737-13.964-7.108-20.945c-2.309-6.796-4.621-13.59-6.93-20.386c-2.436-7.169-4.867-14.339-7.302-21.508
		c-1.588-4.675-3.18-9.348-4.769-14.022c-1.59-4.676-3.179-9.352-4.767-14.027c-1.587-4.676-3.174-9.351-4.754-14.03
		c-0.462-1.371-0.916-2.747-1.343-4.131c-0.673-2.179-2.049-3.802-3.911-5.058c-2.795-1.885-5.771-3.438-8.863-4.762
		c-3.329-1.425-6.667-2.832-10.043-4.137c-4.972-1.92-9.882-4.009-15.017-5.493c-1.711-0.494-3.307-1.287-4.814-2.26
		c-1.028-0.663-1.565-1.565-1.621-2.771c-0.059-1.267,0.083-2.504,0.585-3.68c0.778-1.821,1.675-3.585,2.88-5.162
		c1.368-1.791,2.446-3.758,3.474-5.74c1.604-3.097,3.067-6.267,4.593-9.404c1.957-4.025,3.896-8.059,5.88-12.07
		c3.124-6.316,6.264-12.624,9.425-18.921c2.836-5.65,5.716-11.278,8.567-16.921c2.791-5.523,5.559-11.059,8.356-16.58
		c2.738-5.402,5.506-10.79,8.251-16.189c2.386-4.694,4.759-9.395,7.135-14.094c2.406-4.758,4.807-9.519,7.209-14.279
		c2.342-4.642,4.69-9.281,7.023-13.928c2.627-5.235,5.229-10.482,7.866-15.713c2.043-4.056,4.13-8.091,6.182-12.144
		c2.734-5.401,5.448-10.812,8.181-16.213c1.159-2.291,2.359-4.561,3.511-6.854c1.359-2.705,2.734-5.403,4.008-8.147
		c0.609-1.312,1.514-1.893,2.927-1.889c1.661,0.005,3.292,0.257,4.901,0.596c4.254,0.896,8.483,1.896,12.645,3.169
		c4.784,1.464,9.561,2.954,14.368,4.333c4.049,1.161,8.14,2.179,12.212,3.262c1.718,0.458,3.433,0.925,5.152,1.381
		c6.809,1.806,13.618,3.613,20.429,5.411c5.984,1.58,11.969,3.158,17.958,4.718c5.416,1.41,10.845,2.773,16.258,4.195
		c5.289,1.39,10.444,3.212,15.647,4.882c3.195,1.025,6.433,1.932,9.68,2.778c1.911,0.498,3.894,0.675,5.867,0.834
		c0.933,0.075,1.844-0.05,2.727-0.356c0.499-0.173,0.948-0.419,1.338-0.804c1.688-1.671,3.292-3.417,4.701-5.33
		c2.11-2.862,4.24-5.713,6.279-8.627c1.924-2.751,3.738-5.58,5.607-8.37c1.21-1.807,2.422-3.611,3.652-5.405
		c1.973-2.879,3.943-5.761,5.949-8.617c1.892-2.696,3.826-5.363,5.745-8.041c2.033-2.838,4.067-5.674,6.106-8.508
		c1.924-2.674,3.858-5.34,5.782-8.014c2.076-2.887,4.14-5.783,6.219-8.668c1.964-2.725,3.948-5.437,5.911-8.164
		c1.962-2.726,3.905-5.465,5.863-8.194c1.959-2.73,3.93-5.452,5.89-8.181c2.036-2.835,4.059-5.679,6.096-8.514
		c1.961-2.729,3.938-5.446,5.899-8.174c1.999-2.781,3.985-5.571,5.982-8.353c0.345-0.481,0.688-0.969,1.082-1.411
		c0.661-0.74,1.125-0.768,1.853-0.153c0.301,0.255,0.587,0.532,0.853,0.825c4.255,4.681,8.5,9.372,12.759,14.05
		c2.884,3.167,5.794,6.308,8.678,9.474c5.058,5.553,10.101,11.121,15.159,16.674c2.883,3.166,5.792,6.307,8.674,9.473
		c5.056,5.555,10.095,11.125,15.153,16.678c2.882,3.166,5.8,6.3,8.681,9.467c3.68,4.046,7.231,8.197,10.616,12.498
		c4.482,5.696,9.158,11.236,14.227,16.429c1.935,1.982,3.945,3.889,6.204,5.509c0.641,0.459,1.308,0.885,1.987,1.285
		c1.153,0.678,2.351,0.764,3.597,0.225c1.027-0.445,2.081-0.826,3.109-1.267c2.904-1.246,5.792-2.529,8.702-3.759
		c4.366-1.844,8.748-3.648,13.118-5.485c2.488-1.045,4.96-2.13,7.445-3.183c4.909-2.08,9.825-4.144,14.733-6.227
		c3.091-1.313,6.166-2.661,9.258-3.97c4.424-1.873,8.86-3.718,13.285-5.591c2.789-1.18,5.563-2.396,8.35-3.581
		c2.727-1.158,5.489-2.236,8.186-3.462c2.755-1.252,5.452-2.634,8.167-3.973c4.782-2.358,9.573-4.693,14.592-6.527
		c2.116-0.773,4.274-1.361,6.5-1.637c2.104-0.262,4.052,0.23,5.751,1.575c1.725,1.365,3.16,2.995,4.311,4.852
		c2.88,4.647,5.799,9.254,9.17,13.58c4.455,5.713,8.713,11.58,13.063,17.375c1.661,2.212,3.342,4.41,5.015,6.615
		c1.474,1.943,2.8,3.979,4.045,6.082c1.237,2.094,2.455,4.209,4,6.111c0.625,0.771,1.3,1.481,2.001,2.178
		c1.83,1.819,4.043,2.42,6.529,2.017c1.493-0.242,2.992-0.532,4.435-0.977c3.27-1.009,6.509-2.111,9.651-3.492
		c4.04-1.776,8.213-3.218,12.401-4.604c6.127-2.026,12.268-4.006,18.396-6.026c3.815-1.257,7.612-2.569,11.429-3.822
		c5.755-1.891,11.522-3.739,17.277-5.629c4.003-1.314,7.992-2.669,11.988-4.001c0.625-0.208,1.249-0.425,1.887-0.585
		c0.815-0.204,1.511-0.036,2.168,0.581c1.834,1.719,3.479,3.582,4.949,5.625c1.312,1.824,2.519,3.708,3.66,5.634
		c1.107,1.866,2.145,3.775,3.171,5.688c2.927,5.452,5.591,11.042,8.729,16.382c2.802,4.768,5.545,9.57,8.35,14.335
		c2.771,4.71,5.596,9.389,8.38,14.091c1.91,3.228,3.784,6.479,5.689,9.711c1.839,3.119,3.707,6.22,5.545,9.339
		c2.941,4.992,5.861,9.996,8.803,14.987c2.006,3.404,4.039,6.792,6.048,10.193c2.713,4.591,5.4,9.198,8.13,13.779
		c0.943,1.584,1.965,3.123,2.982,4.662c1.889,2.857,3.848,5.668,5.69,8.555c2.515,3.941,5.007,7.903,7.237,12.014
		c1.412,2.602,2.795,5.229,3.737,8.054c0.291,0.874,0.593,1.747,0.819,2.639c0.329,1.306,0.31,2.611-0.197,3.885
		c-0.583,1.473-1.243,2.907-2.24,4.154c-1.524,1.903-3.029,3.823-4.608,5.679c-2.223,2.611-4.243,5.378-6.335,8.089
		c-2.939,3.808-5.862,7.626-8.8,11.436c-3.704,4.806-7.102,9.821-10.012,15.145c-2.119,3.875-3.875,7.929-4.932,12.237
		c-0.69,2.812-1.297,5.647-1.839,8.492c-1.073,5.628-2.115,11.263-3.095,16.907c-0.844,4.866-1.687,9.736-2.343,14.63
		c-0.717,5.358-1.722,10.67-2.422,16.025c-0.675,5.163-1.625,10.282-2.313,15.439c-0.671,5.032-1.682,10.007-2.407,15.026
		c-0.614,4.243-1.491,8.432-2.277,12.641c-0.786,4.206-1.643,8.401-2.426,12.608c-0.229,1.227-0.312,2.481-0.462,3.724
		c-2.14,0.946-4.324,1.772-6.563,2.456c-1.988,0.607-3.969,1.236-5.952,1.854C726.24,554.232,726.175,554.245,726.124,554.332z"/>
	<path fill-rule="evenodd" clip-rule="evenodd" fill="#FFFFFF" d="M543.951,534.112c-3.379,0.397-6.711,0.146-9.988-0.754
		c-1.719-0.472-3.072-1.48-4.052-2.968c-0.604-0.915-0.774-1.918-0.626-3.016c0.547-4.05,1.148-8.087,2.118-12.062
		c0.968-3.968,1.912-7.939,2.886-11.904c0.205-0.83,0.488-1.643,0.74-2.461c0.096-0.314,0.239-0.619,0.291-0.939
		c0.028-0.17-0.043-0.416-0.162-0.53c-0.11-0.104-0.353-0.126-0.523-0.099c-0.187,0.028-0.362,0.146-0.535,0.239
		c-0.581,0.31-1.177,0.599-1.737,0.941c-3.747,2.297-7.852,3.327-12.21,3.471c-0.197,0.007-0.396,0.018-0.593,0.004
		c-1.081-0.079-1.714,0.453-2.099,1.43c-0.579,1.471-1.193,2.928-1.819,4.38c-1.724,4.008-3.858,7.786-6.389,11.342
		c-1.646,2.313-3.445,4.5-5.544,6.418c-3.3,3.018-6.928,5.457-11.438,6.3c-3.51,0.655-6.983,0.506-10.331-0.704
		c-2.842-1.028-5.197-2.82-6.974-5.306c-2.668-3.731-4.073-7.925-4.629-12.45c-0.216-1.766-0.453-3.522-0.391-5.307
		c0.006-0.177,0.004-0.39-0.231-0.483c-0.286-0.112-0.558-0.028-0.709,0.178c-0.268,0.369-0.484,0.78-0.688,1.19
		c-1.786,3.599-3.522,7.221-5.356,10.794c-1.354,2.641-2.968,5.13-4.773,7.489c-0.966,1.262-2.092,2.367-3.36,3.328
		c-0.253,0.191-0.601,0.295-0.682,0.665l-0.035,0.022c-4.135,1.487-8.438,1.117-12.701,1.106c-1.182-0.003-2.334-0.366-3.477-0.7
		c-2.829-0.826-4.618-2.744-5.542-5.448c-1.081-3.166-1.368-6.416-0.669-9.73c0.258-1.22,0.411-2.466,0.54-3.708
		c0.328-3.156,1.182-6.202,1.882-9.281c0.787-3.465,1.766-6.88,2.763-10.292c1.455-4.988,2.89-9.981,4.466-14.934
		c0.777-2.443,1.459-4.918,2.202-7.373c0.21-0.696,0.43-1.381,0.312-2.122c0.135-0.249,0.249-0.501,0.121-0.789
		c0.131-0.175,0.147-0.377,0.013-0.529c-0.375-0.429-0.849-0.597-1.411-0.427c-0.57,0.173-1.097,0.438-1.53,0.852
		c-2.087,1.983-4.109,4.028-5.981,6.219c-0.171,0.2-0.306,0.423-0.077,0.678l-0.139,0.019l-0.014,0.138
		c-0.299-0.239-0.477,0.002-0.629,0.188c-1.299,1.577-2.624,3.134-3.869,4.752c-1.325,1.721-2.588,3.49-3.851,5.259
		c-3.294,4.609-6.388,9.353-9.342,14.187c-1.305,2.135-2.526,4.32-3.863,6.435c-1.115,1.763-1.674,3.718-2.166,5.698
		c-0.788,3.184-1.543,6.377-2.261,9.576c-0.43,1.916-0.798,3.844-1.059,5.796c-0.175,1.303-0.342,2.597-0.379,3.91
		c-0.014,0.511-0.252,0.821-0.762,1.012c-0.859,0.322-1.668,0.82-2.644,0.476c-0.12-0.042-0.27-0.059-0.392-0.028
		c-1.945,0.489-3.779-0.29-5.662-0.497c-0.39-0.043-0.769-0.181-1.153-0.273c-1.861-0.448-3.083-1.577-3.895-3.321
		c-0.799-1.719-1.172-3.438-1.052-5.345c0.268-4.235,1.272-8.326,2.223-12.432c0.222-0.959,0.465-1.913,0.683-2.874
		c0.042-0.188-0.022-0.389-0.238-0.462c-0.216-0.074-0.374,0.061-0.52,0.197c-0.681,0.639-1.173,1.421-1.67,2.199
		c-2.2,3.448-4.619,6.733-7.271,9.849c-2.921,3.432-6.15,6.531-9.936,8.996c-3.419,2.228-7.124,3.655-11.254,3.907
		c-3.978,0.242-7.928,0.044-11.79-0.896c-4.727-1.149-8.849-3.439-11.862-7.361c-1.947-2.535-3.156-5.466-3.977-8.549
		c-0.648-2.436-0.952-4.912-0.831-7.438c0.018-0.365,0.16-0.855-0.308-1.041c-0.589-0.233-0.808,0.298-1.041,0.668
		c-0.42,0.668-0.813,1.356-1.184,2.054c-2.229,4.194-4.693,8.241-7.424,12.128c-1.555,2.212-3.14,4.405-5.044,6.328
		c-1.435,1.449-2.955,2.825-4.907,3.596c-0.742,0.292-1.5,0.542-2.294,0.558c-2.965,0.056-5.926,0.124-8.861-0.508
		c-2.865-0.617-4.865-2.231-6.019-4.899c-0.764-1.767-1.234-3.618-1.362-5.541c-0.269-4.03-0.077-8.037,0.646-12.017
		c0.117-0.645,0.175-1.302,0.232-1.956c0.007-0.082-0.144-0.217-0.249-0.26c-0.106-0.044-0.267-0.043-0.369,0.008
		c-0.377,0.188-0.521,0.573-0.715,0.914c-1.043,1.831-2.082,3.665-3.128,5.495c-1.963,3.433-4.009,6.82-6.4,9.972
		c-1.991,2.624-4.085,5.171-6.803,7.119c-1.261,0.905-2.617,1.577-4.167,1.644c-3.296,0.143-6.588,0.136-9.828-0.681
		c-1.24-0.313-2.33-0.849-3.353-1.61c-1.495-1.11-2.365-2.634-3.018-4.308c-0.726-1.859-1.075-3.802-1.078-5.8
		c-0.004-2.237-0.104-4.48,0.319-6.697c0.051-0.272-0.003-0.557-0.331-0.594c-0.164-0.018-0.377,0.082-0.509,0.197
		c-0.195,0.17-0.35,0.393-0.5,0.607c-0.451,0.65-0.909,1.296-1.333,1.964c-1.986,3.13-4.286,6.003-7.042,8.492
		c-2.706,2.443-5.786,4.203-9.484,4.441c-5.483,0.354-9.775-1.753-12.477-6.65c-2.394-4.339-3.084-9.061-2.886-13.951
		c0.021-0.526,0.076-1.052,0.079-1.579c0.001-0.185-0.089-0.407-0.324-0.421c-0.184-0.012-0.422-0.01-0.55,0.094
		c-0.249,0.202-0.465,0.46-0.646,0.729c-1.467,2.189-2.931,4.377-4.491,6.504c-3.051,4.158-6.422,8.025-10.137,11.595
		c-4.343,4.173-9.087,7.828-14.342,10.778c-4.613,2.589-9.467,4.608-14.644,5.805c-4.383,1.015-8.812,1.649-13.317,1.611
		c-6.429-0.055-12.57-1.411-18.266-4.43c-3.038-1.609-5.73-3.717-8.099-6.252c-2.594-2.776-4.676-5.88-6.223-9.325
		c-1.595-3.552-2.741-7.241-3.363-11.115c-0.641-3.987-0.863-7.979-0.667-11.992c0.109-2.231,0.516-4.446,0.706-6.676
		c0.382-4.488,1.665-8.793,2.623-13.163c0.225-1.025,0.619-2.013,0.93-3.02c0.506-1.634,0.992-3.274,1.519-4.901
		c0.243-0.749,0.544-1.48,0.847-2.208c0.531-1.274,1.09-2.533,1.509-3.857c0.315-0.994,0.904-1.899,1.3-2.873
		c2.065-5.078,4.729-9.838,7.582-14.506c2.409-3.939,4.997-7.755,7.893-11.344c3.897-4.832,8.17-9.309,13.009-13.23
		c2.619-2.122,5.363-4.058,8.262-5.757c6.271-3.678,12.991-6.014,20.26-6.798c5.342-0.577,10.532-0.018,15.607,1.632
		c4.29,1.395,7.995,3.75,10.817,7.313c1.771,2.237,2.988,4.785,3.808,7.536c0.931,3.126,1.296,6.298,1.271,9.553
		c-0.021,2.778-0.342,5.535-1.016,8.188c-0.581,2.288-1.094,4.606-1.826,6.864c-1.586,4.893-3.337,9.714-5.693,14.3
		c-0.28,0.547-0.863,1.056-0.494,1.798l-0.107,0.02l0.033,0.103c-0.572,0.161-0.627,0.259-0.564,0.993
		c-0.415,0.405-0.616,0.927-0.793,1.461c-0.843,0.291-1.1,0.927-1.036,1.753c-0.327,0.21-0.381,0.532-0.362,0.885
		c-0.482-0.12-0.663,0.246-0.865,0.554c-0.168,0.256-0.384,0.521-0.101,0.84l0.008-0.008c-0.774,0.162-0.882,0.325-0.818,1.234
		c-0.373,0.283-0.625,0.652-0.766,1.098c-0.751,0.273-0.848,0.413-0.867,1.251c-0.29,0.219-0.556,0.458-0.652,0.83
		c-0.348-0.022-0.43,0.138-0.3,0.441l-0.046,0.058c-0.787,0.3-1.022,0.64-0.989,1.437c-0.105,0.039-0.136,0.109-0.093,0.214
		c-0.06-0.023-0.136-0.082-0.178-0.063c-0.944,0.416-1.574,1.165-1.94,2.293c-0.212,0.055-0.343,0.19-0.398,0.4
		c-0.792,0.08-0.889,0.18-1.021,1.057c-0.453,0.438-0.904,0.876-1.356,1.313c-0.756-0.013-0.976,0.183-0.965,0.859
		c-0.344,0.06-0.552,0.279-0.687,0.584c-0.761-0.009-0.982,0.138-1.263,0.835c-0.226,0.131-0.452,0.263-0.677,0.395
		c-0.181-0.035-0.391-0.147-0.539-0.093c-1.346,0.495-2.687,0.998-4.13,1.154c-0.113,0.012-0.198,0.289-0.295,0.442
		c-0.654-0.163-1.307-0.162-1.961,0c-0.028-0.288-0.185-0.484-0.471-0.506c-2.004-0.148-3.938-0.611-5.838-1.244
		c-0.255-0.085-0.504-0.049-0.71,0.147c-0.243-0.264-0.522-0.439-0.903-0.367c-0.04-0.116-0.046-0.292-0.126-0.339
		c-1.151-0.663-2.307-1.315-3.476-1.947c-0.138-0.074-0.356,0-0.537,0.006l0.016,0.013c-0.197-0.747-0.393-0.901-1.161-0.92
		c-0.509-0.618-1.019-1.235-1.528-1.853c0.205-0.561-0.066-0.88-0.549-1.092c-0.032-0.22-0.139-0.384-0.349-0.47
		c0.049-1.182,0.794-1.729,1.827-2.037c0.818-0.245,1.667-0.317,2.489-0.601c2.102-0.725,3.868-1.99,5.557-3.341
		c2.057-1.646,3.922-3.512,5.712-5.453c2.148-2.328,4.125-4.794,6.006-7.338c2.547-3.445,4.842-7.053,6.975-10.769
		c1.675-2.917,3.207-5.9,4.587-8.966c1.547-3.439,2.636-7.031,3.504-10.682c0.472-1.983,0.465-4.075,0.288-6.104
		c-0.208-2.366-1.63-3.958-3.846-4.788c-1.83-0.686-3.71-0.876-5.634-0.396c-0.509,0.126-1.029,0.224-1.55,0.276
		c-3.828,0.388-7.219,1.914-10.445,3.914c-1.394,0.863-2.785,1.719-4.075,2.74c-2.883,2.285-5.61,4.721-8.098,7.451
		c-2.924,3.205-5.575,6.616-8.102,10.129c-1.037,1.442-1.977,2.956-2.936,4.452c-2.553,3.984-4.798,8.146-6.986,12.337
		c-0.576,1.104-1.003,2.286-1.513,3.427c-0.214,0.479-0.458,0.945-0.703,1.411c-0.153,0.291-0.429,0.552-0.482,0.855
		c-0.302,1.72-1.398,3.09-1.993,4.678c-0.623,1.665-1.292,3.312-1.896,4.983c-0.582,1.608-1.176,3.22-1.633,4.866
		c-0.369,1.331-0.761,2.643-1.282,3.923c-0.247,0.605-0.456,1.251-0.54,1.896c-0.306,2.354-1.067,4.6-1.573,6.904
		c-0.393,1.79-0.652,3.608-0.969,5.414c-0.625,3.572-0.798,7.189-1.013,10.798c-0.172,2.904,0.205,5.785,0.673,8.654
		c0.446,2.731,1.585,5.156,3.185,7.359c1.181,1.626,2.807,2.774,4.634,3.604c3.193,1.447,6.566,1.843,10.036,1.681
		c2.985-0.139,5.878-0.75,8.723-1.62c2.015-0.615,3.937-1.462,5.879-2.274c3.179-1.329,6.078-3.129,8.972-4.943
		c1.724-1.082,3.368-2.298,5.006-3.509c2.755-2.038,5.351-4.277,7.886-6.578c1.852-1.681,3.632-3.447,5.376-5.24
		c2.849-2.929,5.579-5.969,8.173-9.125c3.22-3.917,6.285-7.955,9.098-12.175c0.722-1.082,1.227-2.335,1.676-3.565
		c0.478-1.312,1.144-2.515,1.771-3.746c1.677-3.294,3.672-6.394,5.95-9.289c2.492-3.168,5.342-6.013,8.687-8.289
		c4.407-3.001,9.255-4.691,14.644-4.63c2.751,0.031,5.346,0.732,7.815,1.9c0.771,0.363,1.457,0.881,2.054,1.514
		c0.672,0.711,1.387,1.382,2.136,2.121c0.705-0.867,0.94-1.842,1.319-2.731c0.553-1.294,1.424-2.131,2.781-2.567
		c2.581-0.832,5.087-0.395,7.579,0.326c0.946,0.273,1.855,0.68,2.771,1.05c1.383,0.56,2.375,1.637,3.379,2.672
		c0.547,0.563,0.607,1.293,0.269,2.027c-2.628,5.689-4.564,11.642-6.612,17.549c-1.25,3.61-2.489,7.226-3.642,10.866
		c-1.989,6.281-3.843,12.607-5.22,19.053c-0.687,3.217-1.245,6.473-1.406,9.777c-0.064,1.322-0.025,2.638,0.085,3.952
		c0.022,0.264,0.034,0.529,0.089,0.786c0.464,2.152,1.166,2.668,3.309,1.297c1.432-0.917,2.695-2.08,3.805-3.424
		c2.103-2.547,3.893-5.299,5.723-8.039c1.504-2.252,2.769-4.638,4.121-6.969c1.945-3.354,3.641-6.854,5.381-10.323
		c1.506-3.001,2.925-6.046,4.386-9.07c0.46-0.954,0.775-1.946,0.992-2.988c0.229-1.092,0.61-2.152,0.927-3.226
		c1.625-5.495,3.315-10.969,5.105-16.415c2.427-7.385,5.129-14.671,7.803-21.967c1.02-2.78,2.156-5.518,3.253-8.269
		c0.756-1.896,1.552-3.776,2.3-5.675c0.574-1.457,1.591-2.349,3.102-2.782c1.548-0.443,3.09-0.678,4.681-0.34
		c1.354,0.286,2.733,0.497,4.046,0.914c2.155,0.683,4.067,1.829,5.686,3.433c0.685,0.68,0.848,1.426,0.459,2.335
		c-2.72,6.362-4.925,12.919-7.29,19.416c-1.195,3.279-2.417,6.551-3.548,9.853c-2.027,5.92-4.026,11.849-5.976,17.794
		c-1.416,4.319-2.765,8.66-4.088,13.009c-1.898,6.24-3.62,12.534-4.93,18.924c-0.82,4.001-1.457,8.049-1.309,12.166
		c0.021,0.589,0.063,1.185,0.175,1.762c0.093,0.477,0.592,0.73,1.077,0.604c0.77-0.202,1.502-0.499,2.137-0.992
		c1.729-1.34,3.207-2.928,4.532-4.659c2.931-3.829,5.365-7.971,7.715-12.175c1.996-3.567,3.874-7.194,5.67-10.86
		c1.854-3.784,3.879-7.493,5.327-11.464c1.952-5.355,4.557-10.369,7.825-15.032c2.778-3.963,5.986-7.535,9.924-10.384
		c4.041-2.923,8.532-4.727,13.553-4.921c3.392-0.131,6.713,0.376,9.804,1.89c3.741,1.832,6.108,4.856,6.86,8.894
		c0.61,3.271,0.313,6.581-1.182,9.661c-0.719,1.481-1.426,2.977-2.514,4.239c-1.686,1.956-3.715,3.136-6.409,2.773
		c-1.296-0.174-2.369-0.783-3.263-1.71c-0.562-0.582-0.671-1.116-0.206-1.782c1.371-1.959,2.182-4.206,3.326-6.28
		c0.902-1.636,1.295-3.443,1.731-5.234c0.047-0.191,0.075-0.39,0.092-0.587c0.131-1.433-0.586-2.218-2.054-2.281
		c-1.167-0.05-2.206,0.362-3.196,0.901c-1.925,1.049-3.62,2.418-5.117,4.003c-2.951,3.123-5.458,6.583-7.673,10.269
		c-0.952,1.586-1.818,3.206-2.663,4.848c-1.575,3.063-2.799,6.265-3.691,9.573c-1.236,4.592-2.09,9.252-1.892,14.055
		c0.101,2.45,0.478,4.849,1.06,7.221c0.524,2.136,1.472,4.068,2.805,5.823c1.542,2.029,3.478,3.301,6.064,3.655
		c3.052,0.417,5.894-0.064,8.619-1.464c4.045-2.078,7.393-5.012,10.427-8.354c2.621-2.885,4.886-6.042,7.16-9.196
		c0.231-0.32,0.453-0.648,0.659-0.985c1.583-2.579,3.305-5.087,4.691-7.768c1.055-2.041,2.387-3.927,3.244-6.085
		c0.652-1.645,1.567-3.186,2.388-4.762c0.735-1.411,1.208-2.914,1.691-4.421c1.483-4.642,3.028-9.264,4.48-13.915
		c2.218-7.106,4.788-14.087,7.305-21.087c1.27-3.53,2.401-7.108,3.678-10.635c0.941-2.599,1.973-5.166,3.041-7.715
		c1.033-2.464,1.591-2.847,4.297-3.072c4.359-0.363,8.361,0.743,12.037,3.076c0.505,0.32,0.9,0.762,1.22,1.275
		c0.449,0.719,0.577,1.445,0.204,2.248c-0.389,0.836-0.757,1.682-1.083,2.543c-2.011,5.293-4.037,10.581-5.998,15.894
		c-1.644,4.447-3.238,8.911-4.795,13.389c-2.313,6.652-4.581,13.32-6.845,19.991c-0.378,1.114-0.792,2.248-0.524,3.471
		c0.423,0.117,0.583-0.205,0.762-0.462c0.341-0.485,0.676-0.977,0.984-1.482c2.09-3.441,4.558-6.612,6.968-9.825
		c2.572-3.43,5.341-6.697,8.184-9.902c2.542-2.867,5.275-5.526,8.459-7.698c1.539-1.053,3.195-1.847,4.955-2.411
		c3.015-0.968,5.988-0.877,8.823,0.634c2.767,1.476,4.37,3.724,4.38,6.952c0.003,0.859-0.096,1.704-0.262,2.552
		c-0.57,2.913-1.324,5.776-2.135,8.627c-1.713,6.016-3.448,12.026-5.095,18.06c-1.82,6.669-3.673,13.336-4.935,20.141
		c-0.504,2.723-0.79,5.479-0.846,8.251c-0.026,1.322,0.08,2.639,0.569,3.891c0.271,0.694,0.65,0.926,1.372,0.777
		c0.979-0.2,1.901-0.547,2.679-1.202c1.213-1.021,2.313-2.133,3.244-3.437c1.691-2.37,3.087-4.911,4.428-7.477
		c1.555-2.974,2.991-6.013,4.394-9.062c1.843-4.009,3.603-8.055,5.398-12.084c0.08-0.181,0.156-0.363,0.244-0.541
		c1.146-2.305,2.004-4.722,2.858-7.146c1.648-4.675,3.74-9.148,6.435-13.317c2.116-3.276,4.546-6.313,7.4-8.979
		c2.127-1.986,4.475-3.732,7.094-4.985c4.656-2.228,9.563-2.881,14.624-1.641c4.873,1.194,8.59,3.92,10.729,8.55
		c0.687,1.486,1.246,3.031,1.603,4.647c1.033,4.697,1.004,9.416,0.439,14.163c-0.389,3.281-1.188,6.476-1.897,9.691
		c-0.112,0.511-0.198,1.034-0.217,1.555c-0.025,0.67,0.269,0.952,0.979,0.931c1.718-0.052,3.405-0.313,5.064-0.782
		c3.106-0.877,5.872-2.453,8.202-4.602c2.228-2.055,3.981-4.512,4.816-7.568c1.809-6.607,3.988-13.103,6.201-19.585
		c0.469-1.371,0.971-2.73,1.401-4.113c0.562-1.805,1.774-2.871,3.583-3.273c0.576-0.128,1.178-0.185,1.768-0.189
		c3.584-0.035,6.885,0.927,9.933,2.813c0.637,0.395,1.117,0.918,1.604,1.451c0.692,0.759,0.907,1.6,0.301,2.511
		c-0.374,0.561-0.53,1.196-0.746,1.819c-1.361,3.919-2.76,7.826-4.115,11.748c-1.076,3.111-2.114,6.238-3.158,9.36
		c-0.271,0.813-0.524,1.636-0.487,2.509c0.004,0.096,0.104,0.246,0.188,0.267c0.104,0.027,0.29-0.012,0.349-0.091
		c0.662-0.901,1.313-1.813,1.956-2.728c1.587-2.261,3.12-4.562,4.767-6.777c2.116-2.85,4.255-5.688,6.512-8.428
		c1.755-2.13,3.566-4.217,5.545-6.166c1.841-1.813,3.746-3.525,5.854-4.997c2.623-1.831,5.466-3.18,8.738-3.303
		c2.28-0.086,4.453,0.315,6.388,1.653c0.882,0.609,1.639,1.348,2.269,2.186c0.85,1.131,1.253,2.451,1.276,3.883
		c0.024,1.528-0.193,3.028-0.573,4.499c-1.189,4.59-2.336,9.189-3.676,13.741c-1.785,6.065-3.47,12.16-5.126,18.262
		c-0.863,3.177-1.668,6.377-2.329,9.602c-0.739,3.612-1.434,7.243-1.617,10.943c-0.041,0.854-0.066,1.717-0.021,2.57
		c0.05,0.925,0.241,1.831,0.745,2.637c0.228,0.365,0.554,0.573,0.989,0.513c0.719-0.101,1.391-0.296,2.034-0.688
		c1.974-1.197,3.353-2.939,4.563-4.836c3.089-4.84,5.513-10.027,7.999-15.19c1.2-2.49,2.231-5.059,3.522-7.51
		c1.039-1.973,1.813-4.085,2.71-6.134c0.185-0.421,0.395-0.83,0.582-1.251c0.429-0.962,0.98-1.894,1.248-2.899
		c0.683-2.567,1.937-4.892,2.926-7.327c0.347-0.852,0.784-1.669,1.223-2.479c2.386-4.416,5.152-8.578,8.613-12.223
		c2.729-2.875,5.792-5.349,9.378-7.144c3.425-1.714,7.026-2.59,10.841-2.639c2.818-0.036,5.488,0.648,8.033,1.813
		c0.833,0.383,1.59,0.928,2.248,1.583c0.187,0.185,0.321,0.431,0.523,0.591c0.565,0.449,0.928,1.435,1.589,1.376
		c0.785-0.068,0.546-1.2,0.96-1.774c0.453-0.629,0.515-1.434,1.102-2.06c1.409-1.507,3.222-1.76,5.064-1.745
		c2.742,0.022,5.312,0.871,7.774,2.053c1.161,0.556,2.027,1.462,2.849,2.404c0.732,0.842,0.709,1.395,0.071,2.47
		c-0.168,0.283-0.35,0.564-0.463,0.871c-1.706,4.632-3.432,9.257-5.093,13.906c-1.263,3.534-2.49,7.081-3.644,10.652
		c-1.923,5.954-3.749,11.94-5.199,18.027c-0.977,4.098-1.928,8.214-2.203,12.443c-0.104,1.584-0.177,3.166,0.044,4.74
		c0.101,0.712,0.277,1.425,0.516,2.104c0.26,0.744,0.813,0.987,1.581,0.768c0.834-0.239,1.553-0.704,2.244-1.221
		c1.552-1.156,2.786-2.632,3.956-4.132c2.267-2.909,4.291-5.987,6.15-9.187c1.716-2.955,3.354-5.95,5.012-8.937
		c1.182-2.13,2.279-4.311,3.349-6.5c1.677-3.431,3.299-6.888,4.945-10.332c0.113-0.236,0.21-0.486,0.36-0.698
		c0.588-0.838,2.257-1.053,3.011-0.361c0.564,0.517,0.724,1.076,0.265,1.945c-1.075,2.037-2.112,4.097-3.085,6.185
		c-2.502,5.375-5.191,10.655-8.064,15.838c-2.815,5.073-5.847,10.017-9.543,14.515c-1.467,1.784-3.098,3.42-4.987,4.768
		c-1.254,0.894-2.638,1.524-4.198,1.587c-3.102,0.124-6.192,0.062-9.251-0.593c-3.48-0.743-5.685-2.873-6.873-6.153
		c-0.405-1.119-0.66-2.277-0.77-3.462c-0.193-2.104-0.336-4.206-0.077-6.317c0.104-0.85,0.126-1.711,0.164-2.567
		c0.011-0.248,0.023-0.548-0.324-0.623c-0.293-0.063-0.532,0.104-0.674,0.309c-0.628,0.919-1.189,1.884-1.841,2.785
		c-1.029,1.426-1.974,2.9-3.172,4.222c-0.828,0.913-1.635,1.866-2.449,2.803c-1.01,1.161-2.308,1.932-3.447,2.907
		c-1.378,1.18-3.157,1.592-4.814,2.218c-3.037,1.146-5.968,0.502-8.857-0.588c-0.613-0.231-1.179-0.589-1.785-0.844
		c-0.56-0.236-1.028-0.543-1.396-1.047c-0.267-0.365-0.648-0.646-0.982-0.962c-0.235-0.224-0.569-0.397-0.702-0.67
		c-0.656-1.346-1.766-2.428-2.124-3.959c-0.342-1.46-1.093-2.791-1.394-4.289c-0.31-1.545-0.547-3.086-0.669-4.653
		c-0.055-0.696,0.058-1.437-0.402-2.182c-0.586,0.553-1.125,1.036-1.359,1.737c-0.484,1.445-1.317,2.719-1.967,4.082
		c-0.566,1.188-1.169,2.362-1.734,3.551c-0.255,0.535-0.477,1.071-0.876,1.536c-0.337,0.393-0.615,0.861-0.814,1.341
		c-0.838,2.012-2.036,3.836-3.342,5.53c-1.137,1.476-2.129,3.189-3.935,4.055c-1.094,1.218-2.64,1.585-4.098,1.706
		c-3.411,0.284-6.836,0.583-10.271,0.171c-1.321-0.157-2.594-0.465-3.84-0.899c-1.771-0.617-3.01-1.797-3.763-3.531
		c-0.554-1.272-0.99-2.579-1.413-3.896c-0.308-0.96-0.301-1.953-0.28-2.939c0.055-2.707,0.348-5.393,0.822-8.059
		c0.358-2.011,0.685-4.026,1.026-6.041c0.055-0.324,0.098-0.652,0.179-0.973c0.775-3.063,1.504-6.141,2.351-9.185
		c1.286-4.631,2.653-9.239,3.993-13.854c1.341-4.617,2.696-9.229,4.03-13.848c0.16-0.555,0.431-1.189-0.13-1.659
		c-0.582-0.488-1.258-0.294-1.864-0.008c-0.35,0.165-0.668,0.426-0.957,0.69c-1.805,1.642-3.565,3.336-5.109,5.224
		c-2.333,2.856-4.646,5.736-6.842,8.698c-2.001,2.695-3.826,5.521-5.748,8.276c-2.941,4.22-5.594,8.623-8.317,12.981
		c-1.081,1.729-2.218,3.45-2.835,5.414c-0.492,1.569-0.826,3.188-1.252,4.777c-1.04,3.885-1.921,7.805-2.606,11.768
		c-0.246,1.428-0.471,2.867-0.569,4.311c-0.066,0.959-0.352,1.781-0.867,2.557L543.951,534.112z M484.808,516.585
		c-0.142,2.513,0.103,4.997,0.64,7.453c0.098,0.447,0.232,0.902,0.436,1.311c1.611,3.229,3.82,4.391,7.576,2.135
		c2.303-1.384,3.927-3.454,5.477-5.594c1.354-1.869,2.438-3.897,3.615-5.872c1.354-2.271,2.32-4.721,3.46-7.086
		c0.939-1.949,1.495-4.081,2.447-6.021c0.689-1.405,0.693-2.442-0.55-3.46c-0.448-0.367-0.793-0.885-1.111-1.381
		c-1.331-2.084-2.246-4.343-2.318-6.83c-0.094-3.178,0.844-6.138,2.525-8.794c1.011-1.597,2.194-3.146,4.098-3.867
		c0.239-0.09,0.455-0.268,0.649-0.441c0.423-0.377,0.59-0.852,0.496-1.423c-0.479-2.917-3.211-4.797-6.122-4.169
		c-1.779,0.383-3.322,1.285-4.654,2.482c-1.917,1.722-3.527,3.721-4.929,5.889c-1.971,3.048-3.571,6.279-5.029,9.6
		c-1.99,4.531-3.602,9.178-4.737,13.997C485.836,508.492,485.047,512.49,484.808,516.585z M241.083,511.609
		c-0.206,1.9,0.072,3.847,0.805,5.714c0.643,1.636,2.015,2.245,3.663,1.687c0.627-0.213,1.178-0.574,1.708-0.979
		c1.69-1.291,3.11-2.851,4.396-4.521c1.163-1.511,2.253-3.083,3.3-4.678c1.155-1.76,2.291-3.541,3.315-5.379
		c1.443-2.586,2.765-5.238,4.161-7.852c1.184-2.214,2.013-4.576,2.945-6.897c0.147-0.365,0.298-0.744,0.349-1.13
		c0.153-1.185,0.5-2.318,0.847-3.452c0.702-2.292,0.901-4.654,0.969-7.029c0.02-0.717-0.073-1.454-0.234-2.155
		c-0.455-1.967-1.871-3.163-3.886-3.373c-1.566-0.162-3.039,0.131-4.325,1.049c-1.07,0.762-2.093,1.578-3.024,2.531
		c-2.706,2.771-4.686,6.04-6.498,9.403c-2.377,4.414-4.313,9.027-5.811,13.822C242.423,502.66,241.319,506.991,241.083,511.609z
		 M649.727,478.401c0.093-1.157,0.139-2.15-0.074-3.125c-0.613-2.81-2.204-3.615-4.187-3.734c-1.493-0.09-2.856,0.248-4.121,1.1
		c-1.827,1.231-3.338,2.778-4.709,4.479c-2.791,3.465-4.875,7.363-6.743,11.362c-2.518,5.386-4.421,10.993-5.688,16.813
		c-0.508,2.33-0.809,4.678-0.917,7.05c-0.088,1.937,0.277,3.802,1.178,5.537c0.516,0.995,1.384,1.351,2.463,1.306
		c0.897-0.039,1.671-0.435,2.348-0.955c0.887-0.68,1.741-1.417,2.521-2.217c2.919-2.996,5.073-6.563,7.281-10.069
		c1.611-2.556,2.996-5.257,4.424-7.924c0.963-1.798,1.958-3.598,2.702-5.489c0.96-2.441,1.911-4.9,2.473-7.482
		C649.166,482.8,649.766,480.566,649.727,478.401z"/>
	<path fill-rule="evenodd" clip-rule="evenodd" fill="#FFFFFF" d="M247.821,273.899c-1.985,1.824-3.826,3.518-5.67,5.208
		c-3.352,3.072-6.702,6.146-10.059,9.211c-5.354,4.887-10.701,9.781-16.077,14.644c-1.716,1.553-3.327,3.196-4.824,4.959
		c-1.028,1.211-2.138,2.337-3.525,3.147c-0.798,0.467-1.619,0.86-2.527,1.099c-1.054,0.277-1.939,0.085-2.76-0.608
		c-1.711-1.445-3.438-2.872-5.153-4.312c-2.575-2.161-5.139-4.335-7.72-6.489c-4.452-3.715-8.915-7.418-13.373-11.127
		c-5.217-4.341-10.436-8.681-15.651-13.026c-5.266-4.388-10.495-8.819-15.804-13.153c-2.396-1.956-4.947-3.724-7.429-5.574
		c-4.652-3.468-9.264-6.983-13.376-11.103c-0.89-0.891-1.701-1.839-2.365-2.909c-0.34-0.548-0.863-1.094-0.313-1.779
		c0.455-0.566,1.058-0.39,1.641-0.229c0.635,0.175,1.271,0.349,1.91,0.511c6.322,1.604,12.646,3.202,18.966,4.811
		c4.341,1.104,8.676,2.229,13.017,3.337c6.446,1.646,12.891,3.293,19.34,4.925c6.002,1.519,12.012,3.008,18.014,4.527
		c6.385,1.617,12.751,3.315,19.154,4.861c4.225,1.021,8.501,1.824,12.75,2.748c3.025,0.658,6.03,1.416,9.066,2.016
		c3.242,0.641,6.384,1.617,9.524,2.611C245.706,272.562,246.833,272.929,247.821,273.899z"/>
	<path fill-rule="evenodd" clip-rule="evenodd" fill="#FFFFFF" d="M218.872,342.87c-0.102-1.006-0.74-1.789-1.146-2.664
		c-0.287-0.616-0.459-1.22-0.452-1.895c0.032-2.659,0.474-5.237,1.451-7.721c2.202-5.599,4.94-10.907,8.372-15.863
		c2.478-3.58,5.07-7.071,8.011-10.281c3.574-3.9,7.467-7.438,12.171-9.965c2.111-1.134,4.381-1.82,6.745-2.151
		c2.761-0.386,5.534-0.267,8.286,0.088c1.761,0.227,3.508,0.562,5.241,0.994c1.973,0.492,3.679,1.456,5.219,2.705
		c1.606,1.303,2.44,3.019,1.37,5.668c-0.642,1.587-1.305,3.166-1.928,4.76c-2.398,6.138-4.483,12.385-6.464,18.668
		c-1.288,4.082-2.655,8.139-3.979,12.209c-2.079,6.388-4.125,12.787-6.233,19.165c-1.985,6.005-4.16,11.943-6.528,17.807
		c-1.035,2.563-2.225,5.065-3.331,7.601c-0.263,0.602-0.506,1.217-0.7,1.845c-0.176,0.571,0.09,1.025,0.542,1.374
		c0.104,0.08,0.227,0.139,0.348,0.188c2.145,0.873,4.017,2.25,6.073,3.292c2.171,1.1,4.306,2.276,6.409,3.501
		c2.168,1.262,4.426,2.34,6.698,3.385c2.51,1.154,5.106,2.098,7.721,3c3.743,1.291,7.553,1.771,11.486,1.408
		c0.935-0.086,1.796-0.393,2.674-0.675c0.637-0.205,1.289-0.268,1.889,0.171c0.656,0.479,0.792,1.032,0.309,1.674
		c-0.91,1.212-1.816,2.429-2.793,3.587c-1.146,1.356-2.312,2.697-3.625,3.909c-1.083,1-2.296,1.766-3.612,2.381
		c-1.144,0.536-2.361,0.787-3.636,0.828c-3.004,0.097-5.908-0.429-8.758-1.318c-3.603-1.125-7.013-2.698-10.208-4.689
		c-4.919-3.066-9.777-6.231-14.669-9.34c-0.833-0.529-1.708-0.993-2.568-1.479c-0.52-0.293-1.025-0.228-1.467,0.152
		c-0.6,0.516-1.198,1.036-1.759,1.592c-2.759,2.735-6.069,4.414-9.896,4.972c-3.104,0.453-6.186,0.266-9.142-0.92
		c-3.44-1.38-5.812-4.946-5.886-8.622c-0.042-2.128,0.666-3.999,1.619-5.823c0.867-1.66,2.126-3.041,3.528-4.21
		c1.824-1.523,3.928-2.598,6.3-3.14c2.709-0.619,5.371-0.359,8.043,0.141c0.323,0.061,0.637,0.178,0.961,0.218
		c0.443,0.054,0.76-0.156,0.919-0.577c1.373-3.629,2.752-7.254,4.065-10.907c1.804-5.02,3.375-10.112,5.012-15.183
		c1.355-4.198,2.524-8.456,3.812-12.676c2.152-7.054,4.29-14.112,6.519-21.143c1.173-3.702,2.522-7.348,3.797-11.019
		c0.173-0.497,0.43-0.972,0.549-1.48c0.439-1.876,1.272-3.595,2.049-5.339c0.241-0.54,0.466-1.091,0.639-1.655
		c0.181-0.591-0.161-1.034-0.779-1.098c-0.887-0.092-1.692,0.153-2.462,0.574c-1.462,0.8-2.723,1.867-3.854,3.064
		c-3.775,3.996-6.838,8.524-9.687,13.202c-1.37,2.25-2.712,4.52-3.964,6.836c-2.159,3.997-4.269,8.024-5.792,12.321
		c-0.241,0.681-0.427,1.388-0.555,2.099c-0.188,1.046-0.151,2.083,0.181,3.124c0.191,0.601,0.415,1.095,1.005,1.369
		c0.117,0.054,0.22,0.146,0.317,0.234c0.539,0.495,0.5,1.059-0.089,1.478c-1.159,0.824-2.528,1.124-3.86,1.471
		c-1.4,0.366-2.842,0.54-4.301,0.583c-1.685,0.05-3.283-0.197-4.758-1.056c-0.277-0.162-0.554-0.368-0.912-0.241
		C219.363,343.068,219.07,343.019,218.872,342.87z M226.141,389.286c-0.088-0.159-0.142-0.42-0.269-0.463
		c-2.16-0.727-4.327-0.766-6.477,0.044c-0.138,0.052-0.207,0.289-0.307,0.44c-0.212,0.056-0.323,0.203-0.365,0.41
		c-0.157,0.104-0.381,0.172-0.461,0.319c-0.796,1.448-0.065,3.193,1.487,3.548c1.271,0.291,2.476,0.108,3.584-0.601
		c1.17-0.749,2.195-1.639,2.819-2.916C226.537,389.802,226.351,389.544,226.141,389.286z"/>
	<path fill-rule="evenodd" clip-rule="evenodd" fill="#FFFFFF" d="M561.276,223.871c-0.131,0.271-0.297,0.703-0.535,1.089
		c-0.933,1.512-1.88,3.016-2.839,4.512c-2.345,3.658-4.681,7.324-7.059,10.96c-1.91,2.92-3.84,5.822-5.986,8.585
		c-2.788,3.587-5.412,7.3-8.138,10.937c-3.674,4.902-7.386,9.775-11.064,14.674c-2.728,3.633-5.418,7.296-8.145,10.931
		c-2.728,3.635-5.482,7.249-8.222,10.875c-0.833,1.104-1.65,2.22-2.475,3.33c-0.197,0.265-0.382,0.54-0.599,0.787
		c-0.723,0.821-1.377,0.882-2.219,0.196c-0.254-0.207-0.465-0.466-0.692-0.703c-3.703-3.841-7.408-7.678-11.104-11.524
		c-3.102-3.228-6.193-6.464-9.285-9.701c-5.959-6.236-11.915-12.474-17.871-18.712c-0.227-0.238-0.457-0.476-0.66-0.733
		c-0.454-0.573-0.362-0.915,0.32-1.17c4.687-1.748,9.379-3.482,14.063-5.239c3.328-1.248,6.641-2.538,9.971-3.781
		c5.057-1.888,10.124-3.747,15.183-5.628c2.839-1.055,5.667-2.135,8.503-3.193c5.675-2.117,11.354-4.219,17.024-6.343
		c3.206-1.201,6.395-2.451,9.601-3.65c5.241-1.96,10.491-3.896,15.736-5.846c1.11-0.413,2.215-0.845,3.323-1.263
		c0.893-0.335,1.808-0.354,2.722-0.127C561.084,223.199,561.287,223.388,561.276,223.871z"/>
	<path fill-rule="evenodd" clip-rule="evenodd" fill="#FFFFFF" d="M618.398,277.271c0.832,0.124,1.544-0.291,2.265-0.564
		c5.478-2.082,10.938-4.208,16.409-6.307c4.731-1.814,9.476-3.603,14.207-5.418c3.012-1.155,6.008-2.351,9.02-3.507
		c5.285-2.029,10.581-4.033,15.864-6.066c3.441-1.325,6.867-2.685,10.303-4.025c1.226-0.479,2.451-0.96,3.689-1.407
		c0.424-0.153,0.859-0.369,1.339-0.235c0.271,0.075,0.526,0.25,0.408,0.546c-0.345,0.855-0.723,1.697-1.12,2.529
		c-1.644,3.445-3.297,6.886-4.95,10.326c-1.112,2.312-2.346,4.572-3.315,6.941c-0.899,2.196-2.3,4.145-3.022,6.417
		c-0.119,0.374-0.313,0.726-0.483,1.082c-2.537,5.281-5.078,10.559-7.614,15.84c-2.365,4.926-4.729,9.853-7.084,14.785
		c-1.302,2.729-2.58,5.469-3.875,8.201c-0.196,0.416-0.387,0.84-0.635,1.225c-0.452,0.705-1.019,0.822-1.67,0.382
		c-0.163-0.11-0.303-0.254-0.452-0.383c-2.953-2.528-5.903-5.061-8.861-7.583c-3.004-2.563-6.021-5.111-9.024-7.678
		c-2.402-2.055-4.788-4.13-7.187-6.191c-3.194-2.746-6.395-5.487-9.592-8.231c-2.499-2.146-5.014-4.274-7.491-6.446
		c-1.857-1.629-1.748-2.095,0.551-3.007c0.829-0.329,1.806-0.403,2.355-1.26C618.432,277.237,618.398,277.271,618.398,277.271z"/>
	<path fill-rule="evenodd" clip-rule="evenodd" fill="#FFFFFF" d="M307.016,393.189c-1.92,0.008-3.814-0.167-5.664-0.724
		c-2.426-0.731-4.126-2.219-5.048-4.615c-0.896-2.327-1.121-4.733-0.993-7.188c0.059-1.117,0.226-2.228,0.309-3.344
		c0.012-0.156-0.135-0.369-0.271-0.481c-0.247-0.205-0.543-0.084-0.69,0.125c-0.873,1.235-1.698,2.505-2.577,3.737
		c-1.846,2.589-3.938,4.94-6.559,6.789c-2.472,1.743-5.19,2.534-8.201,2.225c-2.662-0.273-4.936-1.358-6.692-3.412
		c-1.079-1.261-1.883-2.672-2.455-4.25c-1.328-3.665-1.685-7.41-1.382-11.282c0.368-4.703,1.509-9.226,3.008-13.662
		c0.585-1.729,1.346-3.408,2.149-5.069c1.586-3.278,3.511-6.319,5.645-9.256c0.904-1.244,2.056-2.222,3.095-3.315
		c1.307-1.375,2.684-2.686,4.274-3.772c4.924-3.365,10.265-4.631,16.14-3.395c0.444,0.093,0.896,0.25,1.286,0.478
		c1.577,0.922,3.345,1.586,4.381,3.255c0.231,0.374,0.728,0.248,0.93-0.195c0.354-0.777,0.692-1.562,1.033-2.345
		c0.342-0.785,0.962-1.232,1.759-1.468c0.951-0.282,1.914-0.52,2.916-0.428c2.592,0.236,5.055,0.888,7.223,2.394
		c0.425,0.295,0.767,0.713,1.134,1.089c0.746,0.763,0.839,1.544,0.226,2.482c-0.427,0.652-0.709,1.412-0.978,2.152
		c-1.994,5.507-4.108,10.973-5.854,16.568c-1.236,3.958-2.56,7.892-3.688,11.88c-0.932,3.292-1.754,6.625-2.402,9.984
		c-0.548,2.838-0.961,5.716-0.912,8.635c0.018,1.083,0.328,2.075,0.671,3.068c0.147,0.429,0.523,0.582,0.957,0.506
		c0.662-0.117,1.222-0.453,1.777-0.823c1.619-1.081,2.855-2.556,3.988-4.081c2.909-3.918,5.375-8.115,7.714-12.399
		c2.747-5.031,5.203-10.203,7.701-15.356c0.229-0.473,0.45-0.958,0.74-1.393c0.638-0.955,1.858-1.055,2.726-0.26
		c0.298,0.272,0.346,0.807,0.074,1.279c-0.36,0.626-0.798,1.212-1.114,1.857c-1.939,3.959-3.782,7.968-5.798,11.888
		c-1.896,3.687-3.911,7.314-6.177,10.798c-1.69,2.6-3.483,5.113-5.581,7.407c-0.897,0.981-1.911,1.819-2.982,2.582
		c-1.381,0.985-2.931,1.476-4.653,1.341C307.809,393.163,307.411,393.189,307.016,393.189z M280.405,375.362
		c-0.008,0.75,0.345,2.831,0.759,3.799c0.555,1.301,1.745,1.842,3.068,1.354c0.363-0.134,0.688-0.378,1.024-0.582
		c1.724-1.047,2.994-2.577,4.184-4.143c1.989-2.62,3.761-5.387,5.385-8.256c2.463-4.354,4.807-8.745,6.284-13.561
		c0.896-2.921,1.404-5.873,1.42-8.921c0.005-0.809-0.182-1.558-0.519-2.287c-0.482-1.04-1.267-1.642-2.408-1.81
		c-1.488-0.22-2.89-0.038-4.157,0.822c-1.092,0.742-2.116,1.583-2.979,2.574c-1.953,2.242-3.554,4.737-4.936,7.362
		c-2.706,5.144-4.784,10.529-6.099,16.202C280.911,370.163,280.414,372.409,280.405,375.362z"/>
	<path fill-rule="evenodd" clip-rule="evenodd" fill="#FFFFFF" d="M663.586,623.516c0.118-2.636,0.518-5.231,1.208-7.78
		c0.71-2.618,1.748-5.097,3.118-7.439c0.505-0.866,1.168-1.587,1.875-2.28c0.382-0.374,0.844-0.603,1.354-0.779
		c0.648-0.224,1.146-0.063,1.609,0.399c0.612,0.611,0.652,0.963,0.027,1.648c-0.996,1.093-1.756,2.297-2.01,3.778
		c-0.28,1.633-0.134,3.194,1.072,4.427c0.775,0.791,0.77,1.545,0.42,2.504c-0.699,1.921-1.517,3.788-2.413,5.618
		c-0.521,1.064-1.203,2.039-2.022,2.911c-0.363,0.387-0.745,0.742-1.237,0.961c-0.969,0.431-1.806,0.183-2.383-0.729
		c-0.356-0.565-0.574-1.187-0.613-1.855C663.564,624.438,663.586,623.978,663.586,623.516z"/>
	<path fill-rule="evenodd" clip-rule="evenodd" fill="#FFFFFF" d="M485.058,616.231c0.237-2.003,0.531-4.147,1.086-6.259
		c0.724-2.762,1.784-5.367,3.257-7.813c0.623-1.034,1.349-1.95,2.445-2.513c0.959-0.491,1.832-0.403,2.557,0.251
		c0.633,0.572,0.699,1.067,0.059,1.655c-1.061,0.974-1.701,2.137-2.037,3.529c-0.351,1.446-0.048,2.736,0.697,3.964
		c0.17,0.28,0.389,0.532,0.594,0.789c0.506,0.631,0.548,1.336,0.271,2.052c-0.809,2.092-1.671,4.164-2.836,6.082
		c-0.473,0.778-1.149,1.435-1.747,2.135c-0.305,0.357-0.691,0.591-1.148,0.736c-1.117,0.358-1.931,0.06-2.466-0.994
		C485.24,618.765,485.126,617.581,485.058,616.231z"/>
	<path fill-rule="evenodd" clip-rule="evenodd" fill="#FFFFFF" d="M596.524,607.927c0.361,3.798,1.063,7.065,1.56,10.365
		c0.274,1.822,0.303,3.671,0.18,5.515c-0.075,1.143-0.404,2.2-1.119,3.105c-0.24,0.304-0.538,0.581-0.857,0.801
		c-0.525,0.361-1.207,0.129-1.49-0.452c-0.209-0.429-0.224-0.885-0.218-1.348c0.017-1.429,0.55-2.693,1.238-3.906
		c0.161-0.283,0.379-0.536,0.563-0.809c0.821-1.22,0.782-1.7-0.33-2.686c-1.058-0.938-2.296-1.515-3.71-1.702
		c-0.407-0.053-0.561-0.364-0.457-0.714c0.258-0.878,0.457-1.82,1.346-2.316c0.563-0.313,0.838-0.795,1.078-1.352
		c0.493-1.146,1.017-2.281,1.54-3.415C595.952,608.785,596.112,608.583,596.524,607.927z"/>
</g>
</svg>
